<?xml version="1.0" standalone="no"?>
<!DOCTYPE svg PUBLIC "-//W3C//DTD SVG 1.1//EN" "http://www.w3.org/Graphics/SVG/1.1/DTD/svg11.dtd" >
<svg xmlns="http://www.w3.org/2000/svg" xmlns:xlink="http://www.w3.org/1999/xlink" version="1.1">
<metadata>
Created by FontForge 20161013 at Fri Oct 21 05:22:16 2011
 By ,,,
Copyright (c) Christian Schwartz, 2007. All rights reserved.
</metadata>
<defs>
<font id="BBVAWebBook-Bold" horiz-adv-x="1229" >
  <font-face 
    font-family="BBVA Web Book"
    font-weight="700"
    font-stretch="normal"
    units-per-em="2048"
    panose-1="2 11 7 3 4 0 0 2 0 4"
    ascent="1638"
    descent="-410"
    x-height="1079"
    cap-height="1434"
    bbox="-393 -358 2402 1899"
    underline-thickness="102"
    underline-position="-307"
    unicode-range="U+0020-FB02"
  />
<missing-glyph horiz-adv-x="791" 
 />
    <glyph glyph-name=".notdef" horiz-adv-x="791" 
 />
    <glyph glyph-name=".null" horiz-adv-x="0" 
 />
    <glyph glyph-name="nonmarkingreturn" horiz-adv-x="682" 
 />
    <glyph glyph-name="space" unicode=" " horiz-adv-x="614" 
 />
    <glyph glyph-name="exclam" unicode="!" horiz-adv-x="616" 
d="M113 1219v215h391v-215l-76 -773h-242zM307 -14q-40 0 -75 14.5t-61 39.5t-41 59t-15 73t15 73t41 59t61 39.5t75 14.5t75 -14.5t61.5 -39.5t41.5 -59t15 -73t-15 -73t-41.5 -59t-61.5 -39.5t-75 -14.5z" />
    <glyph glyph-name="quotedbl" unicode="&#x22;" horiz-adv-x="829" 
d="M49 1260v174h324v-174l-51 -322h-222zM457 1260v174h323v-174l-51 -322h-221z" />
    <glyph glyph-name="numbersign" unicode="#" 
d="M158 1092h182l51 342h240l-51 -342h172l51 342h239l-51 -342h148v-254h-185l-26 -193h145v-254h-182l-57 -391h-240l57 391h-172l-57 -391h-240l58 391h-148v254h184l27 193h-145v254zM516 645h172l27 193h-172z" />
    <glyph glyph-name="dollar" unicode="$" 
d="M698 1444q106 -8 190 -34t159 -67v-256h-146q-38 35 -89.5 62.5t-113.5 38.5v-316q118 -32 200 -68t133.5 -85.5t75 -118t23.5 -164.5q0 -94 -29 -170t-86 -132t-141 -91t-194 -47v-205h-186v199q-128 6 -224.5 34.5t-175.5 77.5v271h148q19 -21 44 -41.5t56.5 -38
t69 -30t82.5 -17.5v332q-96 28 -172.5 62.5t-130.5 84t-82.5 119.5t-28.5 170q0 96 31 170.5t87.5 127.5t136 85t177.5 43v131h186v-127zM786 391q0 56 -26.5 85.5t-79.5 47.5v-264q106 37 106 131zM401 1051q0 -47 27.5 -74.5t83.5 -48.5v250q-54 -16 -82.5 -48.5
t-28.5 -78.5z" />
    <glyph glyph-name="percent" unicode="%" horiz-adv-x="1638" 
d="M391 868q48 0 75.5 46t27.5 151q0 106 -27.5 151.5t-75.5 45.5q-49 0 -75.5 -45.5t-26.5 -151.5q0 -105 26.5 -151t75.5 -46zM391 682q-68 0 -131 23.5t-111.5 71.5t-78 121t-29.5 171t29.5 170t78 119.5t111.5 70.5t131 23q67 0 130.5 -23t112 -70.5t78 -119.5
t29.5 -170t-29.5 -171t-78 -121t-112 -71.5t-130.5 -23.5zM1202 1493h238l-1010 -1563h-237zM1247 170q49 0 76 46t27 151q0 106 -26.5 151t-76.5 45q-48 0 -75 -45t-27 -151q0 -105 27.5 -151t74.5 -46zM1247 -18q-68 0 -131 24t-111.5 72.5t-78 121.5t-29.5 171t29.5 170
t78 119.5t111.5 70.5t131 23q67 0 130.5 -23t113 -70.5t79 -119.5t29.5 -170t-29.5 -171t-79 -121.5t-113 -72.5t-130.5 -24z" />
    <glyph glyph-name="ampersand" unicode="&#x26;" horiz-adv-x="1458" 
d="M967 100q-81 -57 -177 -86.5t-215 -29.5q-133 0 -233 30.5t-167 86t-100.5 134t-33.5 175.5q0 74 24 136t64.5 112t94 88.5t112.5 66.5q-31 54 -48.5 113t-17.5 131q0 87 32 159.5t95 125t155.5 81.5t213.5 29q61 0 111.5 -6.5t92 -18.5t75 -28.5t61.5 -36.5v-248h-145
q-25 25 -66 45.5t-111 20.5q-63 0 -101 -33t-38 -92q0 -25 6 -46.5t19 -43.5t32.5 -45.5t45.5 -51.5l260 -295q27 67 49 142.5t28 150.5h291v-100q-25 -115 -69.5 -222t-100.5 -198l224 -254v-92h-371zM635 242q45 0 84.5 14t73.5 39l-306 340q-35 -32 -57 -76t-22 -106
q0 -45 14 -84t42 -67t70.5 -44t100.5 -16z" />
    <glyph glyph-name="quotesingle" unicode="'" horiz-adv-x="422" 
d="M49 1260v174h324v-174l-51 -322h-222z" />
    <glyph glyph-name="parenleft" unicode="(" horiz-adv-x="721" 
d="M680 1290q-51 -18 -101 -57t-89 -106.5t-63 -168t-24 -241.5q0 -150 24 -254.5t63 -173.5t89 -108t101 -58v-223h-105q-96 26 -189 83.5t-166 155t-118 240t-45 338.5q0 128 21 232.5t57.5 187.5t86.5 147t107.5 110t120 76.5t125.5 47.5h105v-228z" />
    <glyph glyph-name="parenright" unicode=")" horiz-adv-x="721" 
d="M39 1518h106q94 -26 186.5 -82t166.5 -152t120 -235.5t46 -331.5q0 -196 -45 -338.5t-118.5 -240t-166.5 -155t-189 -83.5h-106v223q51 19 100.5 58t88.5 108t63 173.5t24 254.5q0 141 -24 241.5t-63 168t-88.5 106.5t-100.5 57v228z" />
    <glyph glyph-name="asterisk" unicode="*" horiz-adv-x="823" 
d="M485 1176l129 98l97 31l80 -248l-95 -33l-153 6l133 -90l57 -80l-213 -151l-59 82l-49 159l-52 -159l-59 -82l-213 151l59 80l134 90l-154 -6l-96 33l82 248l96 -31l125 -98l-53 157v101h262v-101z" />
    <glyph glyph-name="plus" unicode="+" 
d="M770 565v-368h-305v368h-346v285h346v368h305v-368h344v-285h-344z" />
    <glyph glyph-name="comma" unicode="," horiz-adv-x="614" 
d="M115 -84q66 9 101.5 31t35.5 51q0 15 -6.5 23.5t-17 15t-23.5 13t-27 16.5q-28 20 -45.5 50.5t-17.5 80.5q0 35 14 64.5t39 51t59 33.5t74 12t77 -13t65 -41t44.5 -70.5t16.5 -100.5q0 -168 -95.5 -259t-293.5 -110v152z" />
    <glyph glyph-name="hyphen" unicode="-" horiz-adv-x="627" 
d="M61 739h504v-280h-504v280z" />
    <glyph glyph-name="period" unicode="." horiz-adv-x="614" 
d="M307 -14q-40 0 -75 14.5t-61 39.5t-41 59t-15 73t15 73t41 59t61 39.5t75 14.5t75 -14.5t61.5 -39.5t41.5 -59t15 -73t-15 -73t-41.5 -59t-61.5 -39.5t-75 -14.5z" />
    <glyph glyph-name="slash" unicode="/" horiz-adv-x="754" 
d="M743 1446l-473 -1546h-266v71l473 1547h266v-72z" />
    <glyph glyph-name="zero" unicode="0" 
d="M614 -20q-119 0 -222 43t-178.5 133.5t-119 229.5t-43.5 331t44 331t120.5 229.5t179 133.5t219.5 43t219.5 -43t179 -133.5t121 -229.5t44.5 -331t-43.5 -331t-119.5 -229.5t-179 -133.5t-222 -43zM614 244q44 0 76.5 24t53.5 78.5t31.5 143.5t10.5 219t-10.5 219
t-31.5 144t-53.5 79.5t-76.5 24.5t-76 -24.5t-53.5 -79.5t-32 -144t-10.5 -219t10.5 -219t32 -143.5t53.5 -78.5t76 -24z" />
    <glyph glyph-name="one" unicode="1" 
d="M508 0v1047l-248 -136h-82v273l445 250h278v-1434h-393z" />
    <glyph glyph-name="two" unicode="2" 
d="M1110 0h-1010v299l394 373q60 57 103 103.5t70.5 86.5t40.5 76.5t13 73.5q0 69 -44 108t-134 39q-43 0 -81 -8t-71 -21.5t-61 -31t-51 -35.5h-138v262q38 24 86 47t105 40.5t121.5 28.5t136.5 11q123 0 219.5 -24.5t163.5 -76t102 -131t35 -188.5q0 -76 -23 -142
t-66.5 -128.5t-106 -126t-142.5 -133.5l-233 -207h571v-295z" />
    <glyph glyph-name="three" unicode="3" 
d="M526 -18q-78 0 -140.5 7.5t-114 21t-94 32t-79.5 41.5v256h144q35 -34 98.5 -60t153.5 -26q49 0 91.5 11t73.5 33t48.5 55t17.5 77q0 87 -54 126.5t-169 39.5h-115v256h102q116 0 173 41.5t57 120.5q0 75 -45 115t-133 40q-42 0 -80.5 -7t-71 -18.5t-59.5 -25.5t-47 -28
h-136v243q82 51 191 85t250 34q112 0 204.5 -22.5t158.5 -69.5t102.5 -120t36.5 -173q0 -70 -19.5 -123t-54.5 -92.5t-84.5 -66.5t-110.5 -44v-8q143 -23 218 -102.5t75 -222.5q0 -103 -42.5 -182.5t-120 -133.5t-185.5 -82t-240 -28z" />
    <glyph glyph-name="four" unicode="4" 
d="M645 0v299h-569v293l590 842h366v-885h144v-250h-144v-299h-387zM330 549h323v465h-8l-315 -457v-8z" />
    <glyph glyph-name="five" unicode="5" 
d="M1124 469q0 -114 -43 -204.5t-122.5 -153.5t-192 -96t-250.5 -33q-73 0 -132 7t-109 19.5t-92 30.5t-81 41v264h142q37 -34 99 -61t153 -27q54 0 99 13.5t77 40t49.5 65.5t17.5 90t-13.5 88t-37.5 60.5t-57 34.5t-72 11t-69.5 -7.5t-54.5 -19.5t-42 -26.5t-31 -27.5h-219
v856h901v-295h-628v-293h6q37 29 100 51.5t160 22.5q94 0 174.5 -26.5t140 -82t93.5 -140.5t34 -202z" />
    <glyph glyph-name="six" unicode="6" 
d="M639 -18q-129 0 -236 42t-184 128t-119.5 218.5t-42.5 313.5q0 185 48.5 328.5t140 241t223 148t297.5 50.5q59 0 107 -5t88.5 -13.5t74 -20.5t64.5 -27v-270h-142q-26 22 -72 40t-114 18q-81 0 -138.5 -24t-96 -70t-61 -113t-32.5 -154q62 51 138.5 74.5t169.5 23.5
q97 0 176 -28t135.5 -83t87.5 -136.5t31 -188.5q0 -111 -38 -201.5t-108.5 -155.5t-171 -100.5t-225.5 -35.5zM633 668q-59 0 -109.5 -17.5t-87.5 -42.5q3 -104 16.5 -176.5t38 -118t60 -66t82.5 -20.5q51 0 85.5 16.5t55 47t29 73t8.5 95.5q0 103 -43.5 156t-134.5 53z" />
    <glyph glyph-name="seven" unicode="7" 
d="M260 123l541 999v8h-695v304h1004v-324l-461 -1110h-389v123z" />
    <glyph glyph-name="eight" unicode="8" 
d="M614 -18q-137 0 -240.5 29t-173 83.5t-104.5 133.5t-35 178q0 137 65.5 223.5t195.5 130.5v8q-106 37 -158.5 110t-52.5 189q0 90 36.5 161.5t103 121t159 76t204.5 26.5t205 -26.5t160 -76t104 -121t37 -161.5q0 -116 -53 -189t-160 -110v-8q131 -44 194.5 -130.5
t63.5 -223.5q0 -99 -35 -178t-104 -133.5t-172 -83.5t-240 -29zM614 227q52 0 88.5 16t59.5 43.5t34 65.5t11 82t-11 82t-34 66.5t-59.5 44.5t-88.5 16t-89 -16t-60 -44.5t-34 -66.5t-11 -82t11 -82t34 -65.5t60 -43.5t89 -16zM614 870q78 0 119 43t41 121q0 79 -41 123.5
t-119 44.5t-118.5 -44.5t-40.5 -123.5q0 -78 40.5 -121t118.5 -43z" />
    <glyph glyph-name="nine" unicode="9" 
d="M455 -18q-116 0 -197.5 16.5t-144.5 42.5v276h141q23 -20 72.5 -39.5t126.5 -19.5q86 0 145.5 22.5t97.5 66.5t58 109.5t28 151.5q-65 -46 -141.5 -67t-161.5 -21q-98 0 -178.5 27.5t-137.5 82t-88.5 135t-31.5 187.5q0 111 38.5 203t109.5 158t172.5 102.5t226.5 36.5
q129 0 236 -42t183.5 -128.5t119 -219t42.5 -314.5q0 -184 -45 -326.5t-135 -240t-224 -148.5t-312 -51zM594 764q59 0 109 17t88 40q-3 107 -17 180.5t-38 119t-59.5 65.5t-82.5 20q-51 0 -85.5 -17.5t-55.5 -49t-30 -75t-9 -95.5q0 -205 180 -205z" />
    <glyph glyph-name="colon" unicode=":" horiz-adv-x="614" 
d="M307 567q-41 0 -76 14.5t-60.5 39.5t-40.5 58.5t-15 72.5t15 73t40.5 59.5t60.5 40.5t76 15q40 0 75 -15t61.5 -40.5t41.5 -59.5t15 -73t-15 -72.5t-41.5 -58.5t-61.5 -39.5t-75 -14.5zM307 -14q-41 0 -76 14.5t-60.5 39.5t-40.5 59t-15 73t15 73t40.5 59t60.5 39.5
t76 14.5q40 0 75 -14.5t61.5 -39.5t41.5 -59t15 -73t-15 -73t-41.5 -59t-61.5 -39.5t-75 -14.5z" />
    <glyph glyph-name="semicolon" unicode=";" horiz-adv-x="614" 
d="M111 -84q68 9 102.5 31t34.5 51q0 15 -6.5 23.5t-17 15t-23.5 13t-27 16.5q-28 20 -45.5 50.5t-17.5 80.5q0 35 14 64.5t39 51t59 33.5t74 12q41 0 78 -13t64.5 -41t44 -70.5t16.5 -100.5q0 -168 -95 -259t-294 -110v152zM307 567q-41 0 -76 14.5t-60.5 39.5t-40.5 58.5
t-15 72.5t15 73t40.5 59.5t60.5 40.5t76 15q40 0 75 -15t61.5 -40.5t41.5 -59.5t15 -73t-15 -72.5t-41.5 -58.5t-61.5 -39.5t-75 -14.5z" />
    <glyph glyph-name="less" unicode="&#x3c;" 
d="M180 799l789 385h75v-277l-489 -227v-6l489 -230v-278h-75l-789 385v248z" />
    <glyph glyph-name="equal" unicode="=" 
d="M156 717v272h921v-272h-921zM156 287v272h921v-272h-921z" />
    <glyph glyph-name="greater" unicode="&#x3e;" 
d="M1051 551l-789 -385h-76v276l488 228v6l-488 227v281h76l789 -385v-248z" />
    <glyph glyph-name="question" unicode="?" horiz-adv-x="950" 
d="M236 446q-11 61 -10 109.5t15.5 91t43.5 83t75 85.5q32 30 61 58.5t51 58t35 60t13 65.5q0 57 -37.5 87t-99.5 30q-75 0 -125.5 -24t-85.5 -58h-139v251q36 23 77.5 43t90 34.5t105 23t122.5 8.5q232 0 352.5 -97.5t120.5 -283.5q0 -63 -16 -113.5t-45.5 -93.5t-71 -80.5
t-92.5 -74.5q-43 -33 -77 -61t-57 -57.5t-33.5 -64t-6.5 -80.5h-266zM377 -14q-40 0 -75 14.5t-61.5 39.5t-41.5 59t-15 73t15 73t41.5 59t61.5 39.5t75 14.5t75 -14.5t61 -39.5t41 -59t15 -73t-15 -73t-41 -59t-61 -39.5t-75 -14.5z" />
    <glyph glyph-name="at" unicode="@" horiz-adv-x="1806" 
d="M905 -274q-110 0 -216.5 19.5t-202.5 60t-177 102.5t-140 147t-92.5 194t-33.5 243q0 142 37.5 261.5t103 217t154 171.5t189 123.5t209 75t214.5 25.5q112 0 215.5 -20t194 -59.5t164.5 -97t127.5 -133t82.5 -168t29 -200.5q0 -144 -44 -248t-117.5 -172t-169.5 -100.5
t-199 -32.5q-61 0 -106.5 9t-78 26t-53.5 41t-32 53q-23 -24 -50 -47t-60 -41t-72.5 -28.5t-86.5 -10.5q-57 0 -103.5 19t-79.5 55.5t-51 91.5t-18 127q0 61 14 122.5t41 118t66 105t89 84t110.5 56t130.5 20.5q76 0 124 -24.5t83 -61.5q28 37 61 55.5t86 18.5h139
l-110 -488q-11 -47 -2 -78.5t53 -31.5t83.5 21t69.5 65.5t48 112.5t18 163q0 116 -41.5 207.5t-119 154.5t-187.5 96.5t-248 33.5q-85 0 -168.5 -18.5t-159 -56t-139.5 -94.5t-111 -133.5t-73.5 -173t-26.5 -212.5q0 -155 49 -264.5t134.5 -180t201 -103t248.5 -32.5
q155 0 284.5 34.5t231.5 100.5h74v-176q-48 -32 -112.5 -59t-141 -46t-162 -29.5t-174.5 -10.5zM827 346q32 0 65.5 15t59.5 42l72 310q-14 5 -30.5 8.5t-47.5 3.5q-45 0 -81 -23.5t-61.5 -62.5t-39.5 -89.5t-14 -105.5q0 -49 20 -73.5t57 -24.5z" />
    <glyph glyph-name="A" unicode="A" horiz-adv-x="1421" 
d="M39 92l457 1342h426l462 -1342v-92h-380l-101 324h-457l-96 -324h-311v92zM526 590h297l-147 483h-4z" />
    <glyph glyph-name="B" unicode="B" horiz-adv-x="1284" 
d="M115 1434h536q269 0 401 -91t132 -284q0 -66 -18 -116t-52 -86.5t-81.5 -60.5t-106.5 -38v-8q71 -13 128.5 -39t98 -66.5t62.5 -97t22 -131.5q0 -102 -38.5 -179.5t-112 -130t-180.5 -79.5t-244 -27h-547v1434zM645 254q100 0 148.5 48t48.5 136q0 90 -49 136.5
t-148 46.5h-145v-367h145zM633 860q91 0 133.5 39t42.5 121q0 78 -42 118t-132 40h-135v-318h133z" />
    <glyph glyph-name="C" unicode="C" horiz-adv-x="1300" 
d="M760 -18q-161 0 -291.5 48t-222.5 141t-141.5 228.5t-49.5 309.5q0 176 53 314t150 233.5t233 145.5t302 50q75 0 136.5 -7.5t113.5 -21t96 -32t84 -41.5v-273h-152q-40 37 -105.5 65.5t-162.5 28.5q-163 0 -254.5 -110.5t-91.5 -337.5q0 -123 21 -211.5t62 -145
t102 -83.5t142 -27q58 0 104 10t83.5 27t68 39.5t56.5 48.5h139v-260q-82 -60 -198.5 -99.5t-276.5 -39.5z" />
    <glyph glyph-name="D" unicode="D" horiz-adv-x="1436" 
d="M115 1434h508q371 0 565 -175t194 -534q0 -362 -195 -543.5t-577 -181.5h-495v1434zM604 264q96 0 167 24.5t117.5 78t69.5 139.5t23 209t-22.5 208t-68.5 138t-117.5 76.5t-168.5 23.5h-96v-897h96z" />
    <glyph glyph-name="E" unicode="E" horiz-adv-x="1190" 
d="M115 1434h987v-275h-596v-305h420v-258h-420v-330h616v-266h-1007v1434z" />
    <glyph glyph-name="F" unicode="F" horiz-adv-x="1169" 
d="M115 0v1434h993v-275h-600v-342h461v-262h-461v-555h-393z" />
    <glyph glyph-name="G" unicode="G" horiz-adv-x="1395" 
d="M760 -18q-175 0 -307.5 48t-221 141t-133.5 228.5t-45 309.5q0 179 51.5 317.5t148 233t236 143.5t316.5 49q70 0 128 -6t109 -17t98 -28t95 -39v-283h-145q-24 18 -51 34.5t-60.5 29t-75 19.5t-94.5 7q-84 0 -149.5 -24.5t-110 -78.5t-67.5 -140.5t-23 -210.5
q0 -125 18 -214.5t55 -146.5t93.5 -83.5t132.5 -26.5q57 0 95 5.5t69 14.5v262h-170v238h542v-674q-112 -56 -247 -82t-287 -26z" />
    <glyph glyph-name="H" unicode="H" horiz-adv-x="1456" 
d="M115 0v1434h393v-566h440v566h393v-1434h-393v592h-440v-592h-393z" />
    <glyph glyph-name="I" unicode="I" horiz-adv-x="637" 
d="M121 0v1434h395v-1434h-395z" />
    <glyph glyph-name="J" unicode="J" horiz-adv-x="1004" 
d="M383 -18q-119 0 -203.5 23.5t-146.5 62.5v264h135q14 -13 31 -25.5t39.5 -22t50.5 -15t63 -5.5q75 0 113.5 37.5t38.5 110.5v1022h393v-1022q0 -211 -126 -320.5t-388 -109.5z" />
    <glyph glyph-name="K" unicode="K" horiz-adv-x="1419" 
d="M115 1434h393v-584l485 584h338v-88l-416 -480l459 -778v-88h-383l-352 596l-131 -143v-453h-393v1434z" />
    <glyph glyph-name="L" unicode="L" horiz-adv-x="1130" 
d="M115 0v1434h393v-1164h563v-270h-956z" />
    <glyph glyph-name="M" unicode="M" horiz-adv-x="1804" 
d="M115 1434h514l272 -852h6l273 852h510v-1434h-385v989h-7l-321 -989h-225l-318 989h-6v-989h-313v1434z" />
    <glyph glyph-name="N" unicode="N" horiz-adv-x="1448" 
d="M115 1434h420l469 -830h6v830h323v-1434h-356l-535 940h-6v-940h-321v1434z" />
    <glyph glyph-name="O" unicode="O" horiz-adv-x="1520" 
d="M760 -18q-146 0 -274.5 48t-224.5 141t-152 230t-56 314q0 118 25.5 218.5t72 182.5t111.5 145t143.5 105.5t168.5 64t186 21.5q144 0 273 -48.5t225.5 -142.5t153 -231.5t56.5 -314.5t-56 -314t-152 -230t-225 -141t-275 -48zM760 250q67 0 123.5 26.5t97.5 83
t63.5 143.5t22.5 208t-22.5 209t-63.5 145t-97.5 84t-123.5 27q-68 0 -124 -27t-97 -84t-63.5 -145t-22.5 -209t22.5 -208t63.5 -143.5t97 -83t124 -26.5z" />
    <glyph glyph-name="P" unicode="P" horiz-adv-x="1268" 
d="M115 1434h526q292 0 439 -114t147 -353q0 -236 -153.5 -349.5t-446.5 -113.5h-119v-504h-393v1434zM506 750h119q60 0 100.5 14.5t65.5 42.5t36 68t11 90q0 51 -10 89t-34.5 63.5t-65.5 38.5t-103 13h-119v-419z" />
    <glyph glyph-name="Q" unicode="Q" horiz-adv-x="1520" 
d="M721 -63q-157 42 -281 105.5t-210 157t-131.5 222t-45.5 299.5q0 117 25.5 216.5t72 180.5t111.5 143.5t143.5 105t168.5 64t186 21.5q145 0 274 -48.5t225.5 -142.5t152.5 -230.5t56 -313.5q0 -115 -27 -210t-76.5 -169t-119 -128t-153.5 -87v-6l424 -64v-297h-127z
M760 244q67 0 123.5 26.5t97.5 83t63.5 145t22.5 212.5q0 121 -22.5 209t-63.5 145t-97.5 84t-123.5 27q-68 0 -124 -27t-97 -84t-63.5 -145t-22.5 -209q0 -124 22.5 -212.5t63.5 -145t97 -83t124 -26.5z" />
    <glyph glyph-name="R" unicode="R" horiz-adv-x="1348" 
d="M657 526h-149v-526h-393v1434h538q286 0 430 -112t144 -327q0 -136 -56.5 -231t-156.5 -152l284 -520v-92h-364zM504 782h125q109 0 159 48.5t50 144.5t-50 144t-159 48h-125v-385z" />
    <glyph glyph-name="S" unicode="S" horiz-adv-x="1135" 
d="M514 -18q-78 0 -145 8t-124 23t-106.5 36t-93.5 47v273h145q22 -23 52 -44t68.5 -37t86 -25t103.5 -9q111 0 167 36.5t56 104.5q0 46 -20.5 73.5t-57 45.5t-86.5 30.5t-110 28.5q-99 25 -174 59.5t-125.5 86t-76.5 123.5t-26 174q0 110 40 192t111 136t170 81t218 27
q136 0 242 -25.5t184 -70.5v-264h-142q-49 37 -116 62.5t-154 25.5q-105 0 -157 -32t-52 -101q0 -36 15 -60t44.5 -41t73.5 -30t103 -27q127 -29 214.5 -66t141.5 -90t78 -126t24 -173q0 -108 -36.5 -192t-108.5 -141.5t-178.5 -88t-247.5 -30.5z" />
    <glyph glyph-name="T" unicode="T" horiz-adv-x="1235" 
d="M421 0v1161h-370v273h1133v-273h-370v-1161h-393z" />
    <glyph glyph-name="U" unicode="U" horiz-adv-x="1419" 
d="M750 268q58 0 101.5 13.5t73 45.5t44 85.5t14.5 134.5v887h326v-889q0 -136 -34.5 -240.5t-106 -176t-181.5 -108t-262 -36.5q-305 0 -460.5 145t-155.5 416v889h393v-887q0 -81 16 -134.5t47.5 -85.5t77.5 -45.5t107 -13.5z" />
    <glyph glyph-name="V" unicode="V" horiz-adv-x="1403" 
d="M35 1341v93h383l305 -983h4l309 983h330v-93l-455 -1341h-422z" />
    <glyph glyph-name="W" unicode="W" horiz-adv-x="1933" 
d="M39 1341v93h381l192 -945h4l220 945h311l225 -945h4l187 945h331v-93l-321 -1341h-414l-194 842h-4l-195 -842h-408z" />
    <glyph glyph-name="X" unicode="X" horiz-adv-x="1395" 
d="M51 96l381 645l-371 596v97h390l280 -469l252 469h322v-97l-351 -600l389 -641v-96h-387l-303 514l-278 -514h-324v96z" />
    <glyph glyph-name="Y" unicode="Y" horiz-adv-x="1305" 
d="M467 0v532l-438 805v97h368l287 -560h4l277 560h311v-97l-416 -794v-543h-393z" />
    <glyph glyph-name="Z" unicode="Z" horiz-adv-x="1171" 
d="M53 285l637 868v8h-592v273h1014v-295l-637 -863v-8h637v-268h-1059v285z" />
    <glyph glyph-name="bracketleft" unicode="[" horiz-adv-x="702" 
d="M125 1518h524v-236h-190v-1147h190v-235h-524v1618z" />
    <glyph glyph-name="backslash" unicode="\" horiz-adv-x="754" 
d="M10 1518h264l476 -1547v-71h-267l-473 1546v72z" />
    <glyph glyph-name="bracketright" unicode="]" horiz-adv-x="702" 
d="M578 -100h-523v235h189v1147h-189v236h523v-1618z" />
    <glyph glyph-name="asciicircum" unicode="^" horiz-adv-x="905" 
d="M31 1001l286 433h269l288 -433v-77h-262l-157 225h-6l-156 -225h-262v77z" />
    <glyph glyph-name="underscore" unicode="_" horiz-adv-x="778" 
d="M-6 -332v226h790v-226h-790z" />
    <glyph glyph-name="grave" unicode="`" horiz-adv-x="815" 
d="M311 1149l-209 203v88h355l69 -223v-68h-215z" />
    <glyph glyph-name="a" unicode="a" horiz-adv-x="1133" 
d="M840 0q-65 0 -98.5 24t-49.5 78q-57 -63 -133 -89.5t-176 -26.5q-71 0 -133.5 20t-109 60.5t-73 100.5t-26.5 140q0 85 31 148.5t87 105t134 62t172 20.5q62 0 111 -5.5t96 -14.5v73q0 71 -41.5 104.5t-141.5 33.5q-80 0 -144.5 -20.5t-111.5 -51.5h-110v248
q37 16 83.5 31.5t101 27.5t118 19.5t135.5 7.5q121 0 211 -21t149.5 -66t89 -115.5t29.5 -170.5v-723h-200zM528 201q42 0 78.5 17t65.5 42v191q-28 5 -59 7.5t-62 2.5q-74 0 -117 -30.5t-43 -98.5q0 -69 38.5 -100t98.5 -31z" />
    <glyph glyph-name="b" unicode="b" horiz-adv-x="1243" 
d="M467 971q58 53 137.5 89t183.5 36q77 0 150.5 -26.5t130.5 -89t92 -165t35 -254.5q0 -154 -37 -263.5t-99.5 -179t-145.5 -102t-175 -32.5q-109 0 -187 32t-134 90q-26 -49 -59 -77.5t-70 -28.5h-191v1434h234q42 0 68.5 -7t41 -28t20 -59t5.5 -99v-270zM621 821
q-35 0 -76 -9.5t-78 -25.5v-516q31 -21 65.5 -33t83.5 -12q40 0 77.5 12t66 45t46 92t17.5 154q0 91 -16 148.5t-43 89.5t-64 43.5t-79 11.5z" />
    <glyph glyph-name="c" unicode="c" horiz-adv-x="1040" 
d="M616 -16q-135 0 -241.5 36t-181 106.5t-113.5 173.5t-39 237q0 131 44 235t123 176t189 110t242 38q119 0 203.5 -23.5t138.5 -52.5v-252h-133q-29 26 -78 47t-115 21q-53 0 -97 -18.5t-75.5 -56.5t-49 -95t-17.5 -134t16.5 -132.5t46.5 -91.5t72.5 -53t95.5 -17
q42 0 74.5 6t58 16.5t45.5 24t37 28.5h123v-231q-26 -17 -62 -34.5t-82 -31.5t-102.5 -23t-122.5 -9z" />
    <glyph glyph-name="d" unicode="d" horiz-adv-x="1243" 
d="M885 0q-18 0 -33.5 5t-27.5 17.5t-21 34.5t-15 56q-24 -27 -55 -51t-69.5 -41.5t-85 -28t-101.5 -10.5q-92 0 -170.5 32.5t-136 99.5t-90.5 169t-33 241q0 160 40 269t104 176.5t144 97t161 29.5q51 0 92 -7t75 -20.5t61.5 -32.5t51.5 -43v441h234q43 0 69.5 -7.5
t41 -28.5t19.5 -58.5t5 -98.5v-1241h-260zM606 225q51 0 90 16t80 50v493q-58 37 -145 37q-41 0 -79 -11.5t-67.5 -43.5t-47 -88.5t-17.5 -145.5q0 -84 12 -142.5t35 -95t58 -53t81 -16.5z" />
    <glyph glyph-name="e" unicode="e" horiz-adv-x="1141" 
d="M414 459q7 -69 26.5 -113.5t51 -70.5t76 -36t100.5 -10q91 0 158.5 23t115.5 57h115v-219q-35 -20 -77.5 -39t-96.5 -34t-121 -24t-152 -9q-140 0 -246.5 38t-178 109t-108 172.5t-36.5 228.5q0 130 40 234.5t113 177.5t174.5 112.5t223.5 39.5q252 0 380 -134.5
t128 -408.5q0 -32 -2 -58.5t-2 -35.5h-682zM592 870q-32 0 -60.5 -9.5t-51.5 -34t-40 -67t-24 -108.5h336q-3 62 -14.5 104t-31.5 67.5t-48.5 36.5t-65.5 11z" />
    <glyph glyph-name="f" unicode="f" horiz-adv-x="733" 
d="M25 1079h116v66q0 83 24.5 142t72 97t116 56t156.5 18q71 0 117 -9t80 -22v-204h-72q-62 0 -93.5 -18t-31.5 -75v-51h184v-237h-184v-842h-369v842h-116v237z" />
    <glyph glyph-name="g" unicode="g" horiz-adv-x="1243" 
d="M1145 82q0 -107 -40.5 -187.5t-117.5 -134.5t-187.5 -81t-250.5 -27q-154 0 -262 22.5t-185 59.5v250h115q50 -32 121 -54t164 -22q140 0 207 43.5t67 140.5v53q-51 -42 -125 -67t-164 -25t-170 26.5t-140 86t-95 154.5t-35 233q0 151 40 255t105.5 168t148.5 92t169 28
q100 0 170 -31t127 -90q17 48 50 76t89 28h199v-997zM614 287q45 0 86 15t76 40v438q-31 20 -66 30.5t-83 10.5q-40 0 -77.5 -10t-66 -38.5t-46 -78.5t-17.5 -131q0 -84 12 -137.5t36.5 -84t61 -42.5t84.5 -12z" />
    <glyph glyph-name="h" unicode="h" horiz-adv-x="1233" 
d="M467 954q35 29 77.5 55t90.5 45.5t101.5 30.5t111.5 11q61 0 114 -14t93 -49t63 -93.5t23 -148.5v-791h-369v694q0 35 -7.5 58t-23 36.5t-39.5 19t-57 5.5q-51 0 -95.5 -11t-82.5 -24v-778h-369v1434h234q42 0 68.5 -7t41 -28t20 -59t5.5 -99v-287z" />
    <glyph glyph-name="i" unicode="i" horiz-adv-x="569" 
d="M100 0v1079h238q42 0 67 -8.5t39 -31.5t18.5 -63t4.5 -104v-872h-367zM285 1145q-41 0 -76 13t-60.5 35.5t-40 54t-14.5 69.5q0 37 14.5 69t40 55.5t60.5 36.5t76 13t76 -13t60.5 -36.5t39.5 -55.5t14 -69q0 -38 -14 -69.5t-39.5 -54t-60.5 -35.5t-76 -13z" />
    <glyph glyph-name="j" unicode="j" horiz-adv-x="569" 
d="M-80 -119h57q70 0 96.5 28.5t26.5 94.5v1075h238q42 0 67 -9t39 -32.5t18.5 -63.5t4.5 -102v-886q0 -89 -23 -152t-68 -103t-112 -58.5t-155 -18.5q-62 0 -106.5 7t-82.5 20v200zM285 1145q-41 0 -76 13t-60.5 35.5t-40 54t-14.5 69.5q0 37 14.5 69t40 55.5t60.5 36.5
t76 13t76 -13t60.5 -36.5t39.5 -55.5t14 -69q0 -38 -14 -69.5t-39.5 -54t-60.5 -35.5t-76 -13z" />
    <glyph glyph-name="k" unicode="k" horiz-adv-x="1184" 
d="M467 678l336 401h307v-88l-297 -338l338 -565v-88h-346l-250 420l-88 -96v-324h-369v1434h234q42 0 68.5 -7t41 -28t20 -59t5.5 -99v-563z" />
    <glyph glyph-name="l" unicode="l" horiz-adv-x="573" 
d="M102 0v1434h234q43 0 69.5 -7t41 -28t19.5 -59t5 -99v-1241h-369z" />
    <glyph glyph-name="m" unicode="m" horiz-adv-x="1862" 
d="M354 1079q22 0 39 -5t30 -19.5t22 -40.5t14 -68q35 31 76.5 58.5t88.5 48t99 32t108 11.5q45 0 85.5 -8t75 -26t61.5 -47.5t43 -72.5q77 69 176 111.5t211 42.5q59 0 111 -15t91 -50t61.5 -94t22.5 -146v-791h-368v694q0 67 -28.5 93t-92.5 26q-45 0 -86.5 -10t-75.5 -23
v-780h-368v694q0 67 -28.5 93t-92.5 26q-45 0 -86 -10t-76 -21v-782h-369v1079h256z" />
    <glyph glyph-name="n" unicode="n" horiz-adv-x="1233" 
d="M354 1079q22 0 39 -5t29.5 -19.5t21.5 -40t15 -66.5q36 30 79 57t92 47t104 32t114 12q61 0 114 -14t93 -49t63 -93.5t23 -148.5v-791h-369v694q0 35 -7.5 58t-23 36.5t-39.5 19t-57 5.5q-51 0 -95.5 -11t-82.5 -24v-778h-369v1079h256z" />
    <glyph glyph-name="o" unicode="o" horiz-adv-x="1231" 
d="M616 -16q-122 0 -227 37.5t-182.5 108.5t-121.5 173.5t-44 231.5q0 130 44 233.5t121.5 176.5t182.5 112t227 39q121 0 226 -39t182.5 -112t121.5 -176.5t44 -233.5q0 -129 -44 -231.5t-121.5 -173.5t-182.5 -108.5t-226 -37.5zM616 225q45 0 82 17.5t63.5 55t41 95
t14.5 137.5q0 81 -14.5 140t-41 97.5t-63.5 57.5t-82 19t-82 -19t-64 -57.5t-41.5 -97.5t-14.5 -140q0 -80 14.5 -137.5t41.5 -95t64 -55t82 -17.5z" />
    <glyph glyph-name="p" unicode="p" horiz-adv-x="1243" 
d="M731 10q-88 0 -152 19.5t-112 56.5v-418h-369v1411h256q21 0 37.5 -4.5t29.5 -17.5t21.5 -35.5t14.5 -58.5q30 28 65 52.5t75.5 42.5t88 28t102.5 10q77 0 150.5 -27t130.5 -89t92 -162.5t35 -248.5q0 -154 -39 -260.5t-103.5 -173t-148.5 -96t-174 -29.5zM623 821
q-34 0 -76.5 -9.5t-79.5 -25.5v-495q31 -22 67 -32.5t82 -10.5q42 0 80 11.5t66 43.5t44.5 88.5t16.5 145.5q0 87 -16 142t-43 86.5t-63.5 43.5t-77.5 12z" />
    <glyph glyph-name="q" unicode="q" horiz-adv-x="1243" 
d="M776 104q-51 -43 -125 -68.5t-164 -25.5t-170 30t-140 94t-95 163.5t-35 237.5q0 158 40 265.5t105.5 173t148.5 94t169 28.5q51 0 93 -8.5t78 -25t67 -40t59 -53.5q20 51 53.5 80.5t85.5 29.5h199v-1411h-369v436zM614 250q45 0 86 15t76 40v475q-31 20 -66 30.5
t-83 10.5q-40 0 -77.5 -12t-66 -43t-46 -84t-17.5 -135q0 -86 11.5 -143.5t35 -91.5t60 -48t87.5 -14z" />
    <glyph glyph-name="r" unicode="r" horiz-adv-x="850" 
d="M772 784q-105 0 -182.5 -16t-122.5 -35v-733h-369v1079h256q22 0 39 -5.5t30 -21.5t22 -45t14 -75q27 34 58 62.5t68 49t79.5 32t91.5 11.5q17 0 33.5 -2.5t31.5 -5.5v-295h-49z" />
    <glyph glyph-name="s" unicode="s" horiz-adv-x="961" 
d="M440 -14q-71 0 -128 7t-104 19t-85.5 27.5t-71.5 32.5v241h125q16 -15 40.5 -29t56.5 -25.5t70.5 -18.5t82.5 -7q74 0 117 18t43 60q0 22 -8 37t-29 25.5t-57.5 18.5t-92.5 16q-86 10 -152.5 32t-112.5 60.5t-69.5 97.5t-23.5 143q0 88 33 154.5t93 110.5t143.5 66
t185.5 22q64 0 116 -5t95.5 -14.5t80.5 -23t72 -29.5v-238h-117q-37 25 -96.5 45.5t-140.5 20.5q-78 0 -109.5 -20t-31.5 -58q0 -17 9.5 -30t31 -22.5t57 -17.5t86.5 -14q94 -12 164.5 -33.5t116.5 -60t69 -97.5t23 -145t-29 -154t-88.5 -115t-150 -72t-214.5 -25z" />
    <glyph glyph-name="t" unicode="t" horiz-adv-x="754" 
d="M25 1079h116v275h369v-275h201v-237h-201v-492q0 -72 30.5 -99.5t102.5 -27.5h72v-213q-37 -11 -89.5 -19.5t-121.5 -8.5q-83 0 -150 15.5t-114.5 52.5t-73 96.5t-25.5 148.5v547h-116v237z" />
    <glyph glyph-name="u" unicode="u" horiz-adv-x="1249" 
d="M608 254q44 0 87.5 11t80.5 24v790h367v-1079h-256q-22 0 -38.5 4t-29 17t-21 37t-14.5 63q-37 -29 -78.5 -53.5t-88 -43.5t-97 -29.5t-104.5 -10.5q-67 0 -124.5 15t-100 51t-67 95t-24.5 148v786h369v-702q0 -39 9.5 -63t27 -37.5t43.5 -18t59 -4.5z" />
    <glyph glyph-name="v" unicode="v" horiz-adv-x="1176" 
d="M31 995v84h352l231 -673h4l213 673h314v-84l-369 -995h-364z" />
    <glyph glyph-name="w" unicode="w" horiz-adv-x="1675" 
d="M35 993v86h354l156 -622h4l182 622h270l173 -622h4l165 622h297v-86l-301 -993h-327l-174 594h-4l-183 -594h-323z" />
    <glyph glyph-name="x" unicode="x" horiz-adv-x="1169" 
d="M39 86l301 465l-281 442v86h361l194 -331l181 331h301v-86l-258 -422l292 -485v-86h-358l-209 365l-209 -365h-315v86z" />
    <glyph glyph-name="y" unicode="y" horiz-adv-x="1165" 
d="M279 -248l141 299l-389 944v84h350l225 -612h6l209 612h316v-84l-525 -1327h-333v84z" />
    <glyph glyph-name="z" unicode="z" horiz-adv-x="1040" 
d="M51 248l506 577h-479v254h903v-254l-508 -575h498v-250h-920v248z" />
    <glyph glyph-name="braceleft" unicode="{" horiz-adv-x="770" 
d="M199 487q0 22 -6.5 42t-20.5 36t-35.5 25.5t-52.5 9.5h-45v238h45q31 0 52.5 9.5t35.5 25t20.5 36t6.5 41.5v289q0 65 19.5 117t59 88t99 55t139.5 19h199v-236h-125q-12 0 -22.5 -5.5t-18.5 -14.5t-12.5 -20t-4.5 -21v-275q0 -41 -9.5 -76t-31.5 -63t-58.5 -49
t-90.5 -35v-6q54 -14 90.5 -35t58.5 -49t31.5 -63t9.5 -76v-297q0 -11 4.5 -22t12.5 -20t18.5 -14.5t22.5 -5.5h125v-235h-203q-157 0 -235 74t-78 206v307z" />
    <glyph glyph-name="bar" unicode="|" horiz-adv-x="406" 
d="M340 -100h-274v1618h274v-1618z" />
    <glyph glyph-name="braceright" unicode="}" horiz-adv-x="770" 
d="M569 180q0 -132 -78 -206t-235 -74h-201v235h123q25 0 42.5 20t17.5 42v297q0 41 9.5 76t31 63t57.5 49t90 35v6q-54 14 -90 35t-57.5 49t-31 63t-9.5 76v275q0 21 -17.5 41t-42.5 20h-123v236h199q80 0 139 -19t98 -55t58.5 -88t19.5 -117v-289q0 -21 6.5 -41.5
t20.5 -36t35.5 -25t52.5 -9.5h47v-238h-47q-31 0 -52.5 -9.5t-35.5 -25.5t-20.5 -36t-6.5 -42v-307z" />
    <glyph glyph-name="asciitilde" unicode="~" horiz-adv-x="831" 
d="M33 530q10 52 31 96.5t52.5 76t73.5 49.5t93 18q40 0 75.5 -8t66.5 -17.5t56.5 -17.5t44.5 -8q29 0 46 14.5t26 42.5h199v-108q-9 -52 -30 -96t-52.5 -76t-73 -50t-92.5 -18q-36 0 -71.5 8t-67.5 17.5t-59 17.5t-46 8q-29 0 -45.5 -14.5t-26.5 -42.5h-200v108z" />
    <glyph glyph-name="uni00A0" unicode="&#xa0;" horiz-adv-x="614" 
 />
    <glyph glyph-name="exclamdown" unicode="&#xa1;" horiz-adv-x="616" 
d="M504 76v-215h-391v215l73 770h242zM307 1307q41 0 76 -14.5t61 -39.5t41 -58.5t15 -72.5t-15 -73.5t-41 -60t-61 -40t-76 -14.5q-39 0 -74 14.5t-61 40t-41.5 60t-15.5 73.5t15.5 72.5t41.5 58.5t61 39.5t74 14.5z" />
    <glyph glyph-name="cent" unicode="&#xa2;" 
d="M1081 82q-40 -26 -107 -52.5t-155 -37.5v-203h-186v199q-119 9 -213.5 49t-160.5 110t-101 167.5t-35 222.5q0 120 37.5 216.5t105 167t162.5 114t209 55.5v129h186v-129q84 -8 147.5 -27.5t106.5 -42.5v-252h-133q-20 17 -51.5 33.5t-69.5 25.5v-585q47 11 79 30.5
t56 40.5h123v-231zM496 532q0 -118 36 -187t105 -95v567q-68 -28 -104.5 -99t-36.5 -186z" />
    <glyph glyph-name="sterling" unicode="&#xa3;" 
d="M102 246q33 12 62 32t50 49.5t33.5 69.5t12.5 92q0 26 -2.5 51t-5.5 50h-139v241h84q-11 45 -18 90.5t-7 96.5q0 106 39.5 187t111 136t170 83t216.5 28q67 0 123.5 -7t105.5 -20.5t91.5 -32t80.5 -42.5v-273h-141q-21 17 -44 32t-50.5 26t-60 17.5t-71.5 6.5
q-38 0 -72 -9t-59.5 -28.5t-41 -50.5t-15.5 -76q0 -80 12 -164h332v-241h-301q2 -22 3 -43t1 -41q0 -35 -6.5 -66t-17.5 -58t-25 -49t-29 -38h604v-295h-1026v246z" />
    <glyph glyph-name="yen" unicode="&#xa5;" 
d="M106 793h240l-283 544v97h355l225 -500h6l215 500h301v-97l-268 -544h248v-195h-326v-96h326v-193h-326v-309h-387v309h-326v193h326v96h-326v195z" />
    <glyph glyph-name="brokenbar" unicode="&#xa6;" horiz-adv-x="406" 
d="M66 631h276l-2 -731h-274v731zM66 1518h274l2 -719h-276v719z" />
    <glyph glyph-name="section" unicode="&#xa7;" horiz-adv-x="1126" 
d="M39 561q0 55 14 98.5t39 77t60 58.5t77 43q-54 43 -77 103.5t-23 148.5q0 82 31.5 149t90.5 114t143.5 73t189.5 26q70 0 126 -6t101 -16.5t81 -23.5t66 -28v-237h-116q-35 26 -97 47.5t-149 21.5q-74 0 -116 -20.5t-42 -67.5q0 -19 10 -35.5t33 -31.5t62 -29t98 -29
q108 -27 190.5 -57t138 -73.5t83.5 -104t28 -148.5q0 -41 -9.5 -81t-31.5 -75.5t-58 -66t-89 -53.5q53 -42 79.5 -99t26.5 -139t-29 -151t-89 -118.5t-152 -77t-217 -27.5q-71 0 -129.5 7t-107.5 19t-89.5 27t-74.5 31v241h118q16 -15 46 -30t67.5 -26.5t79.5 -18.5t82 -7
q162 0 162 90q0 23 -11 39.5t-36.5 30.5t-69 27.5t-107.5 31.5q-105 28 -181 61.5t-125.5 77t-73 100.5t-23.5 134zM526 489q45 -12 86 -24t78 -25q40 17 61 45.5t21 63.5q0 28 -11 49t-35 38.5t-62 31.5t-93 28q-40 11 -75.5 20.5t-67.5 20.5q-48 -14 -69 -41t-21 -61
q0 -25 8.5 -45t29.5 -37.5t57.5 -33t92.5 -30.5z" />
    <glyph glyph-name="dieresis" unicode="&#xa8;" horiz-adv-x="815" 
d="M199 1147q-38 0 -70 12t-55 33.5t-36 51t-13 65.5q0 35 13 65t36 52t55 34.5t70 12.5q37 0 69 -12.5t54.5 -34.5t35.5 -52t13 -65q0 -36 -13 -65.5t-35.5 -51t-54.5 -33.5t-69 -12zM616 1147q-38 0 -69.5 12t-54 33.5t-35.5 51t-13 65.5q0 35 13 65t35.5 52t54 34.5
t69.5 12.5t70 -12.5t55.5 -34.5t36.5 -52t13 -65q0 -36 -13 -65.5t-36.5 -51t-55.5 -33.5t-70 -12z" />
    <glyph glyph-name="copyright" unicode="&#xa9;" horiz-adv-x="1599" 
d="M801 -16q-98 0 -191 21.5t-175.5 63.5t-152 104t-119.5 143.5t-78 182t-28 218.5t28 218.5t78 182t119.5 143.5t152 104t175.5 63.5t191 21.5t191 -21.5t175 -63.5t151 -104t119 -143.5t77.5 -182t27.5 -218.5t-27.5 -218.5t-77.5 -182t-119 -143.5t-151 -104t-175 -63.5
t-191 -21.5zM801 98q123 0 232.5 41.5t191.5 120.5t130 194.5t48 262.5t-48 262t-130 194t-191.5 120.5t-232.5 41.5q-125 0 -234.5 -41.5t-192 -120.5t-130 -194t-47.5 -262t47.5 -262.5t130 -194.5t192 -120.5t234.5 -41.5zM823 309q-99 0 -177.5 27t-132.5 79t-83 128
t-29 174q0 97 32 173.5t90 129.5t138.5 81.5t178.5 28.5q88 0 151 -17.5t105 -37.5v-194h-107q-21 18 -53.5 33.5t-83.5 15.5q-75 0 -120.5 -53t-45.5 -162q0 -111 42.5 -160t119.5 -49q30 0 53 4.5t41 12t32 17t25 19.5h99v-176q-19 -12 -46 -25.5t-61.5 -24t-76.5 -17.5
t-91 -7z" />
    <glyph glyph-name="ordfeminine" unicode="&#xaa;" horiz-adv-x="954" 
d="M705 528q-54 0 -81.5 21.5t-41.5 66.5q-48 -54 -110.5 -77t-145.5 -23q-59 0 -111.5 17t-91.5 50.5t-61.5 84t-22.5 118.5q0 72 26 125.5t72.5 88.5t112 52t143.5 17q51 0 93 -3.5t79 -12.5v55q0 56 -34 82.5t-115 26.5q-66 0 -119 -17.5t-90 -40.5h-101v215
q35 15 74.5 28.5t85 24t99 17t116.5 6.5q105 0 182 -17.5t127.5 -56.5t75.5 -100t25 -148v-600h-186zM455 707q29 0 58 13t52 32v151q-21 3 -45 5.5t-49 2.5q-57 0 -91 -24t-34 -80q0 -28 8.5 -47t23 -31t34.5 -17t43 -5z" />
    <glyph glyph-name="guillemotleft" unicode="&#xab;" horiz-adv-x="1090" 
d="M63 467v129l232 387h274v-74l-215 -372v-5l215 -376v-74h-274zM520 467v129l232 387h274v-74l-215 -372v-5l215 -376v-74h-274z" />
    <glyph glyph-name="registered" unicode="&#xae;" horiz-adv-x="786" 
d="M393 717q-74 0 -142.5 24.5t-121 71.5t-84 115t-31.5 155q0 88 31.5 156t84 115t121 71.5t142.5 24.5t142.5 -24.5t121 -71.5t84 -115t31.5 -156q0 -87 -31.5 -155t-84 -115t-121 -71.5t-142.5 -24.5zM393 797q59 0 111 18t90.5 54t61 89.5t22.5 124.5q0 72 -22.5 125.5
t-61 89.5t-90.5 54t-111 18t-110.5 -18t-90 -54t-61 -89.5t-22.5 -125.5q0 -71 22.5 -124.5t61 -89.5t90 -54t110.5 -18zM393 1026h-28v-123h-127v375h168q157 0 157 -127q0 -32 -14 -56.5t-39 -39.5l61 -113v-39h-118zM393 1106q25 0 35 12t10 35q0 20 -10 31.5t-35 11.5
h-31v-90h31z" />
    <glyph glyph-name="macron" unicode="&#xaf;" horiz-adv-x="815" 
d="M684 1186h-553v221h553v-221z" />
    <glyph glyph-name="degree" unicode="&#xb0;" horiz-adv-x="717" 
d="M358 854q-63 0 -119 21.5t-98.5 60.5t-67 93.5t-24.5 121.5t24.5 121.5t67 93t98.5 59.5t119 21t119.5 -21t99.5 -59.5t68 -93t25 -121.5t-25 -121.5t-68 -93.5t-99.5 -60.5t-119.5 -21.5zM358 1010q59 0 95 39t36 102t-36 101t-95 38q-57 0 -92 -38t-35 -101
q0 -32 9.5 -57.5t26 -44.5t40 -29t51.5 -10z" />
    <glyph glyph-name="acute" unicode="&#xb4;" horiz-adv-x="815" 
d="M291 1149v68l67 223h355v-88l-207 -203h-215z" />
    <glyph glyph-name="paragraph" unicode="&#xb6;" horiz-adv-x="1208" 
d="M496 614h-7q-98 0 -180 23.5t-141 73t-92 126.5t-33 185q0 117 40 196t109.5 127t164.5 68.5t206 20.5h531v-1620h-234v1386h-131v-1386h-233v800z" />
    <glyph glyph-name="periodcentered" unicode="&#xb7;" horiz-adv-x="481" 
d="M240 418q-40 0 -75 14t-61.5 39t-41.5 58.5t-15 72.5t15 73t41.5 59t61.5 39.5t75 14.5t75 -14.5t61 -39.5t41 -59t15 -73t-15 -72.5t-41 -58.5t-61 -39t-75 -14z" />
    <glyph glyph-name="cedilla" unicode="&#xb8;" horiz-adv-x="815" 
d="M469 0v-49q87 -5 126.5 -43.5t39.5 -106.5q0 -72 -57 -115.5t-172 -43.5q-57 0 -95.5 8.5t-72.5 23.5v127h63q11 -9 28 -15.5t40 -6.5q53 0 53 33q0 15 -14 23.5t-50 8.5h-45v156h156z" />
    <glyph glyph-name="ordmasculine" unicode="&#xba;" horiz-adv-x="1069" 
d="M535 514q-105 0 -194.5 31.5t-155 91.5t-102 146t-36.5 194q0 109 36.5 196.5t102 149t155 94.5t194.5 33t194 -33t154.5 -94.5t102 -149t36.5 -196.5q0 -108 -36.5 -194t-102 -146t-154.5 -91.5t-194 -31.5zM535 727q36 0 65 14.5t49.5 44.5t31.5 77t11 112
q0 132 -42.5 193t-114.5 61q-73 0 -115.5 -61t-42.5 -193q0 -65 11 -112t31.5 -77t50 -44.5t65.5 -14.5z" />
    <glyph glyph-name="guillemotright" unicode="&#xbb;" horiz-adv-x="1090" 
d="M520 156l215 376v5l-215 372v74h275l231 -387v-129l-231 -385h-275v74zM63 156l216 376v5l-216 372v74h275l231 -387v-129l-231 -385h-275v74z" />
    <glyph glyph-name="onequarter" unicode="&#xbc;" horiz-adv-x="1583" 
d="M1206 0v162h-350v192l361 449h260v-473h79v-168h-79v-162h-271zM1044 328h170v213h-4l-166 -209v-4zM201 631v545l-101 -52h-47v199l223 111h209v-803h-284zM383 -70h-238l1010 1563h238z" />
    <glyph glyph-name="onehalf" unicode="&#xbd;" horiz-adv-x="1667" 
d="M1616 0h-604v201l223 196q54 48 80 82t26 66q0 29 -20.5 47t-60.5 18q-41 0 -75 -14t-52 -31h-107v180q48 29 117.5 50.5t163.5 21.5q155 0 237 -60t82 -182q0 -44 -13 -80t-37 -69t-58.5 -64.5t-77.5 -66.5l-115 -94h291v-201zM201 631v545l-101 -52h-47v199l223 111
h209v-803h-284zM381 -70h-238l1010 1563h238z" />
    <glyph glyph-name="threequarters" unicode="&#xbe;" horiz-adv-x="1661" 
d="M322 616q-50 0 -89 5.5t-70.5 14t-56.5 19.5t-47 23v168h99q18 -14 52 -28.5t81 -14.5q54 0 83 18.5t29 57.5q0 73 -104 73h-82v162h74q54 0 82 19t28 53q0 67 -92 67q-43 0 -76 -12t-53 -24h-98v163q45 28 115 48t159 20q66 0 122 -13t97 -40t64 -68t23 -98
q0 -79 -43.5 -121.5t-120.5 -60.5v-7q178 -24 178 -184q0 -58 -24 -102.5t-69.5 -75t-111 -46.5t-149.5 -16zM1284 0v162h-350v192l360 449h260v-473h80v-168h-80v-162h-270zM1122 328h170v213h-4l-166 -209v-4zM481 -70h-237l1009 1563h238z" />
    <glyph glyph-name="questiondown" unicode="&#xbf;" horiz-adv-x="950" 
d="M715 846q10 -60 9.5 -108.5t-15 -91t-44 -83t-75.5 -84.5q-32 -31 -61 -59.5t-51 -57.5t-35 -59.5t-13 -64.5q0 -59 37.5 -88t99.5 -29q76 0 126 24t85 58h140v-254q-36 -23 -78 -42.5t-90.5 -34.5t-105 -23.5t-122.5 -8.5q-230 0 -351.5 98.5t-121.5 284.5
q0 62 16 112.5t45.5 93.5t71 81t92.5 76q43 33 77 60.5t57 56.5t34 63t7 80h266zM573 1307q41 0 76 -14.5t61 -39.5t41 -58.5t15 -72.5t-15 -73.5t-41 -60t-61 -40t-76 -14.5q-40 0 -75 14.5t-61 40t-41 60t-15 73.5t15 72.5t41 58.5t61 39.5t75 14.5z" />
    <glyph glyph-name="Agrave" unicode="&#xc0;" horiz-adv-x="1421" 
d="M39 92l457 1342h426l462 -1342v-92h-380l-101 324h-457l-96 -324h-311v92zM526 590h297l-147 483h-4zM612 1481l-209 190v86h355l69 -209v-67h-215z" />
    <glyph glyph-name="Aacute" unicode="&#xc1;" horiz-adv-x="1421" 
d="M39 92l457 1342h426l462 -1342v-92h-380l-101 324h-457l-96 -324h-311v92zM526 590h297l-147 483h-4zM582 1548l67 209h355v-86l-207 -190h-215v67z" />
    <glyph glyph-name="Acircumflex" unicode="&#xc2;" horiz-adv-x="1421" 
d="M55 92l457 1342h426l462 -1342v-92h-380l-101 324h-457l-96 -324h-311v92zM542 590h297l-147 483h-4zM411 1559l187 204h247l183 -204v-78h-199l-115 78l-112 -78h-191v78z" />
    <glyph glyph-name="Atilde" unicode="&#xc3;" horiz-adv-x="1421" 
d="M39 92l457 1342h426l462 -1342v-92h-380l-101 324h-457l-96 -324h-311v92zM526 590h297l-147 483h-4zM352 1563q17 102 73 156.5t144 54.5q37 0 70 -8t61.5 -17t52 -17t42.5 -8q26 0 40.5 13.5t22.5 36.5h184v-82q-17 -103 -72.5 -157t-142.5 -54q-38 0 -70.5 8.5t-61 18
t-52 18t-41.5 8.5q-53 0 -65 -53h-185v82z" />
    <glyph glyph-name="Adieresis" unicode="&#xc4;" horiz-adv-x="1421" 
d="M39 92l457 1342h426l462 -1342v-92h-380l-101 324h-457l-96 -324h-311v92zM526 590h297l-147 483h-4zM496 1481q-38 0 -70 12t-55 33.5t-36 51t-13 64.5q0 36 13 65.5t36 51t55 33.5t70 12q37 0 69 -12t54.5 -33.5t35.5 -51t13 -65.5q0 -35 -13 -64.5t-35.5 -51
t-54.5 -33.5t-69 -12zM913 1481q-38 0 -69.5 12t-54 33.5t-35.5 51t-13 64.5q0 36 13 65.5t35.5 51t54 33.5t69.5 12t70 -12t55.5 -33.5t36.5 -51t13 -65.5q0 -35 -13 -64.5t-36.5 -51t-55.5 -33.5t-70 -12z" />
    <glyph glyph-name="Aring" unicode="&#xc5;" horiz-adv-x="1421" 
d="M39 92l457 1342h426l462 -1342v-92h-380l-101 324h-457l-96 -324h-311v92zM526 590h297l-147 483h-4zM703 1481q-45 0 -85 14.5t-70 41.5t-47.5 66t-17.5 87t17.5 86.5t47.5 65.5t70 42t85 15q44 0 84 -15t70 -42t47.5 -65.5t17.5 -86.5t-17.5 -87t-47.5 -66t-70 -41.5
t-84 -14.5zM703 1616q31 0 50 20t19 54t-19 54t-50 20t-49.5 -20t-18.5 -54t18.5 -54t49.5 -20z" />
    <glyph glyph-name="AE" unicode="&#xc6;" horiz-adv-x="1972" 
d="M897 338h-418l-155 -338h-306v92l652 1342h1214v-275h-596v-305h418v-258h-418v-330h617v-266h-1008v338zM600 602h297v557h-41z" />
    <glyph glyph-name="Ccedilla" unicode="&#xc7;" horiz-adv-x="1292" 
d="M1235 121q-79 -57 -188 -95.5t-259 -43.5v-31q87 -5 126.5 -43.5t39.5 -106.5q0 -72 -56.5 -115.5t-172.5 -43.5q-57 0 -95.5 8.5t-72.5 23.5v127h64q11 -9 27.5 -15.5t39.5 -6.5q53 0 53 33q0 15 -14 23.5t-49 8.5h-45v146q-134 18 -241 73.5t-182 147t-115 216.5
t-40 282q0 176 53 314t150 233.5t233 145.5t302 50q75 0 136.5 -7.5t113.5 -21t96 -32t84 -41.5v-273h-152q-40 37 -105.5 65.5t-162.5 28.5q-163 0 -254.5 -110.5t-91.5 -337.5q0 -123 21 -211.5t62 -145t102 -83.5t142 -27q58 0 104 10t83.5 27t68 39.5t56.5 48.5h139
v-260z" />
    <glyph glyph-name="Egrave" unicode="&#xc8;" horiz-adv-x="1190" 
d="M115 1434h987v-275h-596v-305h420v-258h-420v-330h616v-266h-1007v1434zM540 1481l-209 190v86h355l69 -209v-67h-215z" />
    <glyph glyph-name="Eacute" unicode="&#xc9;" horiz-adv-x="1190" 
d="M115 1434h987v-275h-596v-305h420v-258h-420v-330h616v-266h-1007v1434zM516 1548l67 209h355v-86l-207 -190h-215v67z" />
    <glyph glyph-name="Ecircumflex" unicode="&#xca;" horiz-adv-x="1190" 
d="M115 1434h987v-275h-596v-305h420v-258h-420v-330h616v-266h-1007v1434zM323 1559l187 204h247l183 -204v-78h-199l-115 78l-112 -78h-191v78z" />
    <glyph glyph-name="Edieresis" unicode="&#xcb;" horiz-adv-x="1190" 
d="M115 1434h987v-275h-596v-305h420v-258h-420v-330h616v-266h-1007v1434zM424 1481q-38 0 -70 12t-55 33.5t-36 51t-13 64.5q0 36 13 65.5t36 51t55 33.5t70 12q37 0 69 -12t54.5 -33.5t35.5 -51t13 -65.5q0 -35 -13 -64.5t-35.5 -51t-54.5 -33.5t-69 -12zM841 1481
q-38 0 -69.5 12t-54 33.5t-35.5 51t-13 64.5q0 36 13 65.5t35.5 51t54 33.5t69.5 12t70 -12t55.5 -33.5t36.5 -51t13 -65.5q0 -35 -13 -64.5t-36.5 -51t-55.5 -33.5t-70 -12z" />
    <glyph glyph-name="Igrave" unicode="&#xcc;" horiz-adv-x="637" 
d="M121 0v1434h395v-1434h-395zM228 1481l-209 190v86h355l69 -209v-67h-215z" />
    <glyph glyph-name="Iacute" unicode="&#xcd;" horiz-adv-x="637" 
d="M121 0v1434h395v-1434h-395zM204 1548l67 209h355v-86l-207 -190h-215v67z" />
    <glyph glyph-name="Icircumflex" unicode="&#xce;" horiz-adv-x="637" 
d="M121 0v1434h395v-1434h-395zM11 1559l187 204h247l183 -204v-78h-199l-115 78l-112 -78h-191v78z" />
    <glyph glyph-name="Idieresis" unicode="&#xcf;" horiz-adv-x="637" 
d="M121 0v1434h395v-1434h-395zM110 1481q-38 0 -70 12t-55 33.5t-36 51t-13 64.5q0 36 13 65.5t36 51t55 33.5t70 12q37 0 69 -12t54.5 -33.5t35.5 -51t13 -65.5q0 -35 -13 -64.5t-35.5 -51t-54.5 -33.5t-69 -12zM527 1481q-38 0 -69.5 12t-54 33.5t-35.5 51t-13 64.5
q0 36 13 65.5t35.5 51t54 33.5t69.5 12t70 -12t55.5 -33.5t36.5 -51t13 -65.5q0 -35 -13 -64.5t-36.5 -51t-55.5 -33.5t-70 -12z" />
    <glyph glyph-name="Eth" unicode="&#xd0;" horiz-adv-x="1444" 
d="M10 842h113v592h508q186 0 328 -43.5t238 -131.5t145 -221t49 -313q0 -362 -195.5 -543.5t-577.5 -181.5h-495v588h-113v254zM612 264q96 0 167 24.5t117.5 78t69.5 139.5t23 209t-22.5 208t-68.5 138t-117.5 76.5t-168.5 23.5h-96v-319h258v-254h-258v-324h96z" />
    <glyph glyph-name="Ntilde" unicode="&#xd1;" horiz-adv-x="1448" 
d="M115 1434h420l469 -830h6v830h323v-1434h-356l-535 940h-6v-940h-321v1434zM411 1563q17 102 73 156.5t144 54.5q37 0 70 -8t61.5 -17t52 -17t42.5 -8q26 0 40.5 13.5t22.5 36.5h184v-82q-17 -103 -72.5 -157t-142.5 -54q-38 0 -70.5 8.5t-61 18t-52 18t-41.5 8.5
q-53 0 -65 -53h-185v82z" />
    <glyph glyph-name="Ograve" unicode="&#xd2;" horiz-adv-x="1520" 
d="M760 -18q-146 0 -274.5 48t-224.5 141t-152 230t-56 314q0 118 25.5 218.5t72 182.5t111.5 145t143.5 105.5t168.5 64t186 21.5q144 0 273 -48.5t225.5 -142.5t153 -231.5t56.5 -314.5t-56 -314t-152 -230t-225 -141t-275 -48zM760 250q67 0 123.5 26.5t97.5 83
t63.5 143.5t22.5 208t-22.5 209t-63.5 145t-97.5 84t-123.5 27q-68 0 -124 -27t-97 -84t-63.5 -145t-22.5 -209t22.5 -208t63.5 -143.5t97 -83t124 -26.5zM667 1481l-209 190v86h355l69 -209v-67h-215z" />
    <glyph glyph-name="Oacute" unicode="&#xd3;" horiz-adv-x="1520" 
d="M760 -18q-146 0 -274.5 48t-224.5 141t-152 230t-56 314q0 118 25.5 218.5t72 182.5t111.5 145t143.5 105.5t168.5 64t186 21.5q144 0 273 -48.5t225.5 -142.5t153 -231.5t56.5 -314.5t-56 -314t-152 -230t-225 -141t-275 -48zM760 250q67 0 123.5 26.5t97.5 83
t63.5 143.5t22.5 208t-22.5 209t-63.5 145t-97.5 84t-123.5 27q-68 0 -124 -27t-97 -84t-63.5 -145t-22.5 -209t22.5 -208t63.5 -143.5t97 -83t124 -26.5zM643 1548l67 209h355v-86l-207 -190h-215v67z" />
    <glyph glyph-name="Ocircumflex" unicode="&#xd4;" horiz-adv-x="1520" 
d="M760 -18q-146 0 -274.5 48t-224.5 141t-152 230t-56 314q0 118 25.5 218.5t72 182.5t111.5 145t143.5 105.5t168.5 64t186 21.5q144 0 273 -48.5t225.5 -142.5t153 -231.5t56.5 -314.5t-56 -314t-152 -230t-225 -141t-275 -48zM760 250q67 0 123.5 26.5t97.5 83
t63.5 143.5t22.5 208t-22.5 209t-63.5 145t-97.5 84t-123.5 27q-68 0 -124 -27t-97 -84t-63.5 -145t-22.5 -209t22.5 -208t63.5 -143.5t97 -83t124 -26.5zM450 1559l187 204h247l183 -204v-78h-199l-115 78l-112 -78h-191v78z" />
    <glyph glyph-name="Otilde" unicode="&#xd5;" horiz-adv-x="1520" 
d="M760 -18q-146 0 -274.5 48t-224.5 141t-152 230t-56 314q0 118 25.5 218.5t72 182.5t111.5 145t143.5 105.5t168.5 64t186 21.5q144 0 273 -48.5t225.5 -142.5t153 -231.5t56.5 -314.5t-56 -314t-152 -230t-225 -141t-275 -48zM760 250q67 0 123.5 26.5t97.5 83
t63.5 143.5t22.5 208t-22.5 209t-63.5 145t-97.5 84t-123.5 27q-68 0 -124 -27t-97 -84t-63.5 -145t-22.5 -209t22.5 -208t63.5 -143.5t97 -83t124 -26.5zM413 1563q17 102 73 156.5t144 54.5q37 0 70 -8t61.5 -17t52 -17t42.5 -8q26 0 40.5 13.5t22.5 36.5h184v-82
q-17 -103 -72.5 -157t-142.5 -54q-38 0 -70.5 8.5t-61 18t-52 18t-41.5 8.5q-53 0 -65 -53h-185v82z" />
    <glyph glyph-name="Odieresis" unicode="&#xd6;" horiz-adv-x="1520" 
d="M760 -18q-146 0 -274.5 48t-224.5 141t-152 230t-56 314q0 118 25.5 218.5t72 182.5t111.5 145t143.5 105.5t168.5 64t186 21.5q144 0 273 -48.5t225.5 -142.5t153 -231.5t56.5 -314.5t-56 -314t-152 -230t-225 -141t-275 -48zM760 250q67 0 123.5 26.5t97.5 83
t63.5 143.5t22.5 208t-22.5 209t-63.5 145t-97.5 84t-123.5 27q-68 0 -124 -27t-97 -84t-63.5 -145t-22.5 -209t22.5 -208t63.5 -143.5t97 -83t124 -26.5zM551 1481q-38 0 -70 12t-55 33.5t-36 51t-13 64.5q0 36 13 65.5t36 51t55 33.5t70 12q37 0 69 -12t54.5 -33.5
t35.5 -51t13 -65.5q0 -35 -13 -64.5t-35.5 -51t-54.5 -33.5t-69 -12zM968 1481q-38 0 -69.5 12t-54 33.5t-35.5 51t-13 64.5q0 36 13 65.5t35.5 51t54 33.5t69.5 12t70 -12t55.5 -33.5t36.5 -51t13 -65.5q0 -35 -13 -64.5t-36.5 -51t-55.5 -33.5t-70 -12z" />
    <glyph glyph-name="multiply" unicode="&#xd7;" 
d="M137 414l285 282l-285 283l195 195l284 -285l285 285l195 -195l-287 -283l287 -282l-193 -193l-287 283l-286 -283z" />
    <glyph glyph-name="Oslash" unicode="&#xd8;" horiz-adv-x="1520" 
d="M760 -18q-105 0 -201.5 24t-179.5 74l-100 -125h-199v57l151 187q-83 93 -130.5 222t-47.5 294q0 118 25.5 218.5t72 182.5t111.5 145t143.5 105.5t168.5 64t186 21.5q109 0 209.5 -28.5t187.5 -82.5l98 121h197v-57l-154 -188q79 -93 124.5 -218.5t45.5 -283.5
q0 -177 -56 -314t-152 -230t-225 -141t-275 -48zM446 711q0 -65 6 -118.5t17 -98.5l492 606q-39 40 -90 60t-111 20q-69 0 -127 -27.5t-99.5 -85t-64.5 -146t-23 -210.5zM760 246q68 0 126 27t100 83.5t65.5 144.5t23.5 210q0 58 -5.5 108.5t-14.5 93.5l-488 -600
q38 -35 87 -51t106 -16z" />
    <glyph glyph-name="Ugrave" unicode="&#xd9;" horiz-adv-x="1419" 
d="M750 268q58 0 101.5 13.5t73 45.5t44 85.5t14.5 134.5v887h326v-889q0 -136 -34.5 -240.5t-106 -176t-181.5 -108t-262 -36.5q-305 0 -460.5 145t-155.5 416v889h393v-887q0 -81 16 -134.5t47.5 -85.5t77.5 -45.5t107 -13.5zM649 1481l-209 190v86h355l69 -209v-67h-215z
" />
    <glyph glyph-name="Uacute" unicode="&#xda;" horiz-adv-x="1419" 
d="M750 268q58 0 101.5 13.5t73 45.5t44 85.5t14.5 134.5v887h326v-889q0 -136 -34.5 -240.5t-106 -176t-181.5 -108t-262 -36.5q-305 0 -460.5 145t-155.5 416v889h393v-887q0 -81 16 -134.5t47.5 -85.5t77.5 -45.5t107 -13.5zM625 1548l67 209h355v-86l-207 -190h-215v67z
" />
    <glyph glyph-name="Ucircumflex" unicode="&#xdb;" horiz-adv-x="1419" 
d="M750 268q58 0 101.5 13.5t73 45.5t44 85.5t14.5 134.5v887h326v-889q0 -136 -34.5 -240.5t-106 -176t-181.5 -108t-262 -36.5q-305 0 -460.5 145t-155.5 416v889h393v-887q0 -81 16 -134.5t47.5 -85.5t77.5 -45.5t107 -13.5zM432 1559l187 204h247l183 -204v-78h-199
l-115 78l-112 -78h-191v78z" />
    <glyph glyph-name="Udieresis" unicode="&#xdc;" horiz-adv-x="1419" 
d="M750 268q58 0 101.5 13.5t73 45.5t44 85.5t14.5 134.5v887h326v-889q0 -136 -34.5 -240.5t-106 -176t-181.5 -108t-262 -36.5q-305 0 -460.5 145t-155.5 416v889h393v-887q0 -81 16 -134.5t47.5 -85.5t77.5 -45.5t107 -13.5zM531 1481q-38 0 -70 12t-55 33.5t-36 51
t-13 64.5q0 36 13 65.5t36 51t55 33.5t70 12q37 0 69 -12t54.5 -33.5t35.5 -51t13 -65.5q0 -35 -13 -64.5t-35.5 -51t-54.5 -33.5t-69 -12zM948 1481q-38 0 -69.5 12t-54 33.5t-35.5 51t-13 64.5q0 36 13 65.5t35.5 51t54 33.5t69.5 12t70 -12t55.5 -33.5t36.5 -51t13 -65.5
q0 -35 -13 -64.5t-36.5 -51t-55.5 -33.5t-70 -12z" />
    <glyph glyph-name="Yacute" unicode="&#xdd;" horiz-adv-x="1305" 
d="M467 0v532l-438 805v97h368l287 -560h4l277 560h311v-97l-416 -794v-543h-393zM555 1548l67 209h355v-86l-207 -190h-215v67z" />
    <glyph glyph-name="Thorn" unicode="&#xde;" horiz-adv-x="1268" 
d="M115 1434h393v-250h133q292 0 439 -112t147 -345q0 -230 -153.5 -342.5t-446.5 -112.5h-119v-272h-393v1434zM506 520h119q60 0 100.5 13.5t65.5 40t36 64.5t11 87t-10 85.5t-34.5 60.5t-65.5 35.5t-103 11.5h-119v-398z" />
    <glyph glyph-name="germandbls" unicode="&#xdf;" horiz-adv-x="1335" 
d="M98 1020q0 102 36 183t108 137t180 86t252 30q117 0 209.5 -19.5t156.5 -59t97.5 -99t33.5 -139.5q0 -39 -13 -74t-35 -66t-51.5 -59t-63.5 -53q-33 -25 -54 -42.5t-33.5 -31.5t-17 -26t-4.5 -25q0 -12 5 -22.5t19 -20.5t37.5 -22t61.5 -27q67 -28 119 -58t86.5 -70
t52.5 -92.5t18 -125.5q0 -75 -27 -137.5t-81.5 -107.5t-136.5 -70t-193 -25q-88 0 -165.5 18.5t-127.5 50.5v240h117q12 -11 28.5 -22.5t36.5 -20.5t45 -15t54 -6q54 0 85.5 18.5t31.5 47.5q0 17 -8 29.5t-27 24t-50 24t-77 30.5q-110 41 -170 107.5t-60 175.5q0 45 10.5 80
t28.5 65.5t43.5 58.5t55.5 60q22 25 40 44.5t30.5 37t19 34.5t6.5 38q0 43 -36 71.5t-107 28.5q-53 0 -90.5 -13.5t-61 -38.5t-34.5 -60.5t-11 -79.5v-1012h-369v1020z" />
    <glyph glyph-name="agrave" unicode="&#xe0;" horiz-adv-x="1133" 
d="M840 0q-65 0 -98.5 24t-49.5 78q-57 -63 -133 -89.5t-176 -26.5q-71 0 -133.5 20t-109 60.5t-73 100.5t-26.5 140q0 85 31 148.5t87 105t134 62t172 20.5q62 0 111 -5.5t96 -14.5v73q0 71 -41.5 104.5t-141.5 33.5q-80 0 -144.5 -20.5t-111.5 -51.5h-110v248
q37 16 83.5 31.5t101 27.5t118 19.5t135.5 7.5q121 0 211 -21t149.5 -66t89 -115.5t29.5 -170.5v-723h-200zM528 201q42 0 78.5 17t65.5 42v191q-28 5 -59 7.5t-62 2.5q-74 0 -117 -30.5t-43 -98.5q0 -69 38.5 -100t98.5 -31zM452 1149l-209 203v88h355l69 -223v-68h-215z
" />
    <glyph glyph-name="aacute" unicode="&#xe1;" horiz-adv-x="1133" 
d="M840 0q-65 0 -98.5 24t-49.5 78q-57 -63 -133 -89.5t-176 -26.5q-71 0 -133.5 20t-109 60.5t-73 100.5t-26.5 140q0 85 31 148.5t87 105t134 62t172 20.5q62 0 111 -5.5t96 -14.5v73q0 71 -41.5 104.5t-141.5 33.5q-80 0 -144.5 -20.5t-111.5 -51.5h-110v248
q37 16 83.5 31.5t101 27.5t118 19.5t135.5 7.5q121 0 211 -21t149.5 -66t89 -115.5t29.5 -170.5v-723h-200zM528 201q42 0 78.5 17t65.5 42v191q-28 5 -59 7.5t-62 2.5q-74 0 -117 -30.5t-43 -98.5q0 -69 38.5 -100t98.5 -31zM453 1149v68l67 223h355v-88l-207 -203h-215z
" />
    <glyph glyph-name="acircumflex" unicode="&#xe2;" horiz-adv-x="1133" 
d="M840 0q-65 0 -98.5 24t-49.5 78q-57 -63 -133 -89.5t-176 -26.5q-71 0 -133.5 20t-109 60.5t-73 100.5t-26.5 140q0 85 31 148.5t87 105t134 62t172 20.5q62 0 111 -5.5t96 -14.5v73q0 71 -41.5 104.5t-141.5 33.5q-80 0 -144.5 -20.5t-111.5 -51.5h-110v248
q37 16 83.5 31.5t101 27.5t118 19.5t135.5 7.5q121 0 211 -21t149.5 -66t89 -115.5t29.5 -170.5v-723h-200zM528 201q42 0 78.5 17t65.5 42v191q-28 5 -59 7.5t-62 2.5q-74 0 -117 -30.5t-43 -98.5q0 -69 38.5 -100t98.5 -31zM250 1227l187 213h247l183 -213v-78h-199
l-115 86l-112 -86h-191v78z" />
    <glyph glyph-name="atilde" unicode="&#xe3;" horiz-adv-x="1133" 
d="M840 0q-65 0 -98.5 24t-49.5 78q-57 -63 -133 -89.5t-176 -26.5q-71 0 -133.5 20t-109 60.5t-73 100.5t-26.5 140q0 85 31 148.5t87 105t134 62t172 20.5q62 0 111 -5.5t96 -14.5v73q0 71 -41.5 104.5t-141.5 33.5q-80 0 -144.5 -20.5t-111.5 -51.5h-110v248
q37 16 83.5 31.5t101 27.5t118 19.5t135.5 7.5q121 0 211 -21t149.5 -66t89 -115.5t29.5 -170.5v-723h-200zM528 201q42 0 78.5 17t65.5 42v191q-28 5 -59 7.5t-62 2.5q-74 0 -117 -30.5t-43 -98.5q0 -69 38.5 -100t98.5 -31zM213 1233q17 102 73 157.5t144 55.5
q37 0 70 -7.5t61.5 -17t52 -17t42.5 -7.5q26 0 40.5 13t22.5 36h184v-82q-17 -102 -72.5 -157.5t-142.5 -55.5q-38 0 -70.5 8.5t-61 18t-52 18t-41.5 8.5q-53 0 -65 -53h-185v82z" />
    <glyph glyph-name="adieresis" unicode="&#xe4;" horiz-adv-x="1133" 
d="M840 0q-65 0 -98.5 24t-49.5 78q-57 -63 -133 -89.5t-176 -26.5q-71 0 -133.5 20t-109 60.5t-73 100.5t-26.5 140q0 85 31 148.5t87 105t134 62t172 20.5q62 0 111 -5.5t96 -14.5v73q0 71 -41.5 104.5t-141.5 33.5q-80 0 -144.5 -20.5t-111.5 -51.5h-110v248
q37 16 83.5 31.5t101 27.5t118 19.5t135.5 7.5q121 0 211 -21t149.5 -66t89 -115.5t29.5 -170.5v-723h-200zM528 201q42 0 78.5 17t65.5 42v191q-28 5 -59 7.5t-62 2.5q-74 0 -117 -30.5t-43 -98.5q0 -69 38.5 -100t98.5 -31zM349 1147q-38 0 -70 12t-55 33.5t-36 51
t-13 65.5q0 35 13 65t36 52t55 34.5t70 12.5q37 0 69 -12.5t54.5 -34.5t35.5 -52t13 -65q0 -36 -13 -65.5t-35.5 -51t-54.5 -33.5t-69 -12zM766 1147q-38 0 -69.5 12t-54 33.5t-35.5 51t-13 65.5q0 35 13 65t35.5 52t54 34.5t69.5 12.5t70 -12.5t55.5 -34.5t36.5 -52t13 -65
q0 -36 -13 -65.5t-36.5 -51t-55.5 -33.5t-70 -12z" />
    <glyph glyph-name="aring" unicode="&#xe5;" horiz-adv-x="1133" 
d="M840 0q-65 0 -98.5 24t-49.5 78q-57 -63 -133 -89.5t-176 -26.5q-71 0 -133.5 20t-109 60.5t-73 100.5t-26.5 140q0 85 31 148.5t87 105t134 62t172 20.5q62 0 111 -5.5t96 -14.5v73q0 71 -41.5 104.5t-141.5 33.5q-80 0 -144.5 -20.5t-111.5 -51.5h-110v248
q37 16 83.5 31.5t101 27.5t118 19.5t135.5 7.5q121 0 211 -21t149.5 -66t89 -115.5t29.5 -170.5v-723h-200zM528 201q42 0 78.5 17t65.5 42v191q-28 5 -59 7.5t-62 2.5q-74 0 -117 -30.5t-43 -98.5q0 -69 38.5 -100t98.5 -31zM558 1151q-45 0 -85 14.5t-70 41.5t-47.5 66
t-17.5 87t17.5 86.5t47.5 65.5t70 42t85 15q44 0 84 -15t70 -42t47.5 -65.5t17.5 -86.5t-17.5 -87t-47.5 -66t-70 -41.5t-84 -14.5zM558 1286q31 0 50 20t19 54t-19 54t-50 20t-49.5 -20t-18.5 -54t18.5 -54t49.5 -20z" />
    <glyph glyph-name="ae" unicode="&#xe6;" horiz-adv-x="1767" 
d="M414 -14q-83 0 -151.5 19.5t-118 60t-76.5 101.5t-27 144t31 146t88.5 105t139.5 63.5t185 21.5h187v51q0 70 -41.5 103t-141.5 33q-80 0 -144.5 -20.5t-111.5 -51.5h-110v248q37 16 83.5 31.5t100.5 27.5t116 19.5t132 7.5q122 0 203 -24t131 -77q69 48 153.5 74.5
t178.5 26.5q251 0 378 -134t127 -409q0 -32 -2 -58.5t-2 -35.5h-682q7 -69 26.5 -113.5t51.5 -70.5t75.5 -36t98.5 -10q91 0 159 23t118 57h114v-219q-35 -20 -77.5 -39t-96.5 -34t-121 -24t-151 -9q-152 0 -261.5 42.5t-180.5 120.5q-32 -37 -70.5 -66.5t-85 -50.5
t-102.5 -32.5t-123 -11.5zM522 201q67 0 111.5 26t75.5 60q-16 38 -25 81t-14 91h-123q-71 0 -113.5 -29.5t-42.5 -97.5q0 -35 10 -59.5t28 -40.5t42 -23.5t51 -7.5zM1219 870q-32 0 -61 -9.5t-52.5 -34.5t-40 -67.5t-23.5 -109.5h336q-2 63 -13.5 105.5t-31.5 68
t-48.5 36.5t-65.5 11z" />
    <glyph glyph-name="ccedilla" unicode="&#xe7;" horiz-adv-x="1040" 
d="M985 82q-26 -17 -62 -34.5t-82 -31.5t-101.5 -23t-121.5 -9v-33q87 -5 126.5 -43.5t39.5 -106.5q0 -72 -56.5 -115.5t-172.5 -43.5q-57 0 -95.5 8.5t-72.5 23.5v127h64q11 -9 27.5 -15.5t39.5 -6.5q53 0 53 33q0 15 -14 23.5t-49 8.5h-45v154q-201 37 -311.5 174
t-110.5 365q0 131 44 235t123 176t189 110t242 38q119 0 203.5 -23.5t138.5 -52.5v-252h-133q-29 26 -78 47t-115 21q-53 0 -97 -18.5t-75.5 -56.5t-49 -95t-17.5 -134t16.5 -132.5t46.5 -91.5t72.5 -53t95.5 -17q42 0 74.5 6t58 16.5t45.5 24t37 28.5h123v-231z" />
    <glyph glyph-name="egrave" unicode="&#xe8;" horiz-adv-x="1141" 
d="M414 459q7 -69 26.5 -113.5t51 -70.5t76 -36t100.5 -10q91 0 158.5 23t115.5 57h115v-219q-35 -20 -77.5 -39t-96.5 -34t-121 -24t-152 -9q-140 0 -246.5 38t-178 109t-108 172.5t-36.5 228.5q0 130 40 234.5t113 177.5t174.5 112.5t223.5 39.5q252 0 380 -134.5
t128 -408.5q0 -32 -2 -58.5t-2 -35.5h-682zM592 870q-32 0 -60.5 -9.5t-51.5 -34t-40 -67t-24 -108.5h336q-3 62 -14.5 104t-31.5 67.5t-48.5 36.5t-65.5 11zM477 1149l-209 203v88h355l69 -223v-68h-215z" />
    <glyph glyph-name="eacute" unicode="&#xe9;" horiz-adv-x="1141" 
d="M414 459q7 -69 26.5 -113.5t51 -70.5t76 -36t100.5 -10q91 0 158.5 23t115.5 57h115v-219q-35 -20 -77.5 -39t-96.5 -34t-121 -24t-152 -9q-140 0 -246.5 38t-178 109t-108 172.5t-36.5 228.5q0 130 40 234.5t113 177.5t174.5 112.5t223.5 39.5q252 0 380 -134.5
t128 -408.5q0 -32 -2 -58.5t-2 -35.5h-682zM592 870q-32 0 -60.5 -9.5t-51.5 -34t-40 -67t-24 -108.5h336q-3 62 -14.5 104t-31.5 67.5t-48.5 36.5t-65.5 11zM477 1149v68l67 223h355v-88l-207 -203h-215z" />
    <glyph glyph-name="ecircumflex" unicode="&#xea;" horiz-adv-x="1141" 
d="M414 459q7 -69 26.5 -113.5t51 -70.5t76 -36t100.5 -10q91 0 158.5 23t115.5 57h115v-219q-35 -20 -77.5 -39t-96.5 -34t-121 -24t-152 -9q-140 0 -246.5 38t-178 109t-108 172.5t-36.5 228.5q0 130 40 234.5t113 177.5t174.5 112.5t223.5 39.5q252 0 380 -134.5
t128 -408.5q0 -32 -2 -58.5t-2 -35.5h-682zM592 870q-32 0 -60.5 -9.5t-51.5 -34t-40 -67t-24 -108.5h336q-3 62 -14.5 104t-31.5 67.5t-48.5 36.5t-65.5 11zM274 1227l187 213h247l183 -213v-78h-199l-115 86l-112 -86h-191v78z" />
    <glyph glyph-name="edieresis" unicode="&#xeb;" horiz-adv-x="1141" 
d="M414 459q7 -69 26.5 -113.5t51 -70.5t76 -36t100.5 -10q91 0 158.5 23t115.5 57h115v-219q-35 -20 -77.5 -39t-96.5 -34t-121 -24t-152 -9q-140 0 -246.5 38t-178 109t-108 172.5t-36.5 228.5q0 130 40 234.5t113 177.5t174.5 112.5t223.5 39.5q252 0 380 -134.5
t128 -408.5q0 -32 -2 -58.5t-2 -35.5h-682zM592 870q-32 0 -60.5 -9.5t-51.5 -34t-40 -67t-24 -108.5h336q-3 62 -14.5 104t-31.5 67.5t-48.5 36.5t-65.5 11zM373 1147q-38 0 -70 12t-55 33.5t-36 51t-13 65.5q0 35 13 65t36 52t55 34.5t70 12.5q37 0 69 -12.5t54.5 -34.5
t35.5 -52t13 -65q0 -36 -13 -65.5t-35.5 -51t-54.5 -33.5t-69 -12zM790 1147q-38 0 -69.5 12t-54 33.5t-35.5 51t-13 65.5q0 35 13 65t35.5 52t54 34.5t69.5 12.5t70 -12.5t55.5 -34.5t36.5 -52t13 -65q0 -36 -13 -65.5t-36.5 -51t-55.5 -33.5t-70 -12z" />
    <glyph glyph-name="igrave" unicode="&#xec;" horiz-adv-x="569" 
d="M100 0v1079h238q42 0 67 -8.5t39 -31.5t18.5 -63t4.5 -104v-872h-367zM195 1149l-209 203v88h355l69 -223v-68h-215z" />
    <glyph glyph-name="iacute" unicode="&#xed;" horiz-adv-x="569" 
d="M100 0v1079h238q42 0 67 -8.5t39 -31.5t18.5 -63t4.5 -104v-872h-367zM157 1149v68l67 223h355v-88l-207 -203h-215z" />
    <glyph glyph-name="icircumflex" unicode="&#xee;" horiz-adv-x="569" 
d="M100 0v1079h238q42 0 67 -8.5t39 -31.5t18.5 -63t4.5 -104v-872h-367zM-22 1227l187 213h247l183 -213v-78h-199l-115 86l-112 -86h-191v78z" />
    <glyph glyph-name="idieresis" unicode="&#xef;" horiz-adv-x="569" 
d="M100 0v1079h238q42 0 67 -8.5t39 -31.5t18.5 -63t4.5 -104v-872h-367zM77 1147q-38 0 -70 12t-55 33.5t-36 51t-13 65.5q0 35 13 65t36 52t55 34.5t70 12.5q37 0 69 -12.5t54.5 -34.5t35.5 -52t13 -65q0 -36 -13 -65.5t-35.5 -51t-54.5 -33.5t-69 -12zM494 1147
q-38 0 -69.5 12t-54 33.5t-35.5 51t-13 65.5q0 35 13 65t35.5 52t54 34.5t69.5 12.5t70 -12.5t55.5 -34.5t36.5 -52t13 -65q0 -36 -13 -65.5t-36.5 -51t-55.5 -33.5t-70 -12z" />
    <glyph glyph-name="eth" unicode="&#xf0;" horiz-adv-x="1231" 
d="M334 1126l82 70q-28 8 -56 14t-57 13v211h143q53 -8 103 -20t96 -28l53 46h207v-56l-82 -69q175 -105 271 -286t96 -433q0 -158 -44.5 -272t-122.5 -187.5t-185 -109t-232 -35.5q-124 0 -227.5 36t-178.5 104.5t-117 166.5t-42 223t38 221t102.5 161t149.5 98.5t179 33.5
q51 0 89 -7.5t68 -20.5t54 -31.5t47 -40.5q-25 63 -68 110t-100 82l-59 -51h-207v57zM623 225q91 0 142.5 68.5t51.5 216.5q0 150 -51 219.5t-143 69.5q-46 0 -84.5 -17t-66 -52.5t-43 -90t-15.5 -129.5q0 -74 15.5 -127.5t43 -88.5t66 -52t84.5 -17z" />
    <glyph glyph-name="ntilde" unicode="&#xf1;" horiz-adv-x="1233" 
d="M354 1079q22 0 39 -5t29.5 -19.5t21.5 -40t15 -66.5q36 30 79 57t92 47t104 32t114 12q61 0 114 -14t93 -49t63 -93.5t23 -148.5v-791h-369v694q0 35 -7.5 58t-23 36.5t-39.5 19t-57 5.5q-51 0 -95.5 -11t-82.5 -24v-778h-369v1079h256zM278 1233q17 102 73 157.5
t144 55.5q37 0 70 -7.5t61.5 -17t52 -17t42.5 -7.5q26 0 40.5 13t22.5 36h184v-82q-17 -102 -72.5 -157.5t-142.5 -55.5q-38 0 -70.5 8.5t-61 18t-52 18t-41.5 8.5q-53 0 -65 -53h-185v82z" />
    <glyph glyph-name="ograve" unicode="&#xf2;" horiz-adv-x="1231" 
d="M616 -16q-122 0 -227 37.5t-182.5 108.5t-121.5 173.5t-44 231.5q0 130 44 233.5t121.5 176.5t182.5 112t227 39q121 0 226 -39t182.5 -112t121.5 -176.5t44 -233.5q0 -129 -44 -231.5t-121.5 -173.5t-182.5 -108.5t-226 -37.5zM616 225q45 0 82 17.5t63.5 55t41 95
t14.5 137.5q0 81 -14.5 140t-41 97.5t-63.5 57.5t-82 19t-82 -19t-64 -57.5t-41.5 -97.5t-14.5 -140q0 -80 14.5 -137.5t41.5 -95t64 -55t82 -17.5zM510 1149l-209 203v88h355l69 -223v-68h-215z" />
    <glyph glyph-name="oacute" unicode="&#xf3;" horiz-adv-x="1231" 
d="M616 -16q-122 0 -227 37.5t-182.5 108.5t-121.5 173.5t-44 231.5q0 130 44 233.5t121.5 176.5t182.5 112t227 39q121 0 226 -39t182.5 -112t121.5 -176.5t44 -233.5q0 -129 -44 -231.5t-121.5 -173.5t-182.5 -108.5t-226 -37.5zM616 225q45 0 82 17.5t63.5 55t41 95
t14.5 137.5q0 81 -14.5 140t-41 97.5t-63.5 57.5t-82 19t-82 -19t-64 -57.5t-41.5 -97.5t-14.5 -140q0 -80 14.5 -137.5t41.5 -95t64 -55t82 -17.5zM510 1149v68l67 223h355v-88l-207 -203h-215z" />
    <glyph glyph-name="ocircumflex" unicode="&#xf4;" horiz-adv-x="1231" 
d="M616 -16q-122 0 -227 37.5t-182.5 108.5t-121.5 173.5t-44 231.5q0 130 44 233.5t121.5 176.5t182.5 112t227 39q121 0 226 -39t182.5 -112t121.5 -176.5t44 -233.5q0 -129 -44 -231.5t-121.5 -173.5t-182.5 -108.5t-226 -37.5zM616 225q45 0 82 17.5t63.5 55t41 95
t14.5 137.5q0 81 -14.5 140t-41 97.5t-63.5 57.5t-82 19t-82 -19t-64 -57.5t-41.5 -97.5t-14.5 -140q0 -80 14.5 -137.5t41.5 -95t64 -55t82 -17.5zM307 1227l187 213h247l183 -213v-78h-199l-115 86l-112 -86h-191v78z" />
    <glyph glyph-name="otilde" unicode="&#xf5;" horiz-adv-x="1231" 
d="M616 -16q-122 0 -227 37.5t-182.5 108.5t-121.5 173.5t-44 231.5q0 130 44 233.5t121.5 176.5t182.5 112t227 39q121 0 226 -39t182.5 -112t121.5 -176.5t44 -233.5q0 -129 -44 -231.5t-121.5 -173.5t-182.5 -108.5t-226 -37.5zM616 225q45 0 82 17.5t63.5 55t41 95
t14.5 137.5q0 81 -14.5 140t-41 97.5t-63.5 57.5t-82 19t-82 -19t-64 -57.5t-41.5 -97.5t-14.5 -140q0 -80 14.5 -137.5t41.5 -95t64 -55t82 -17.5zM270 1233q17 102 73 157.5t144 55.5q37 0 70 -7.5t61.5 -17t52 -17t42.5 -7.5q26 0 40.5 13t22.5 36h184v-82
q-17 -102 -72.5 -157.5t-142.5 -55.5q-38 0 -70.5 8.5t-61 18t-52 18t-41.5 8.5q-53 0 -65 -53h-185v82z" />
    <glyph glyph-name="odieresis" unicode="&#xf6;" horiz-adv-x="1231" 
d="M616 -16q-122 0 -227 37.5t-182.5 108.5t-121.5 173.5t-44 231.5q0 130 44 233.5t121.5 176.5t182.5 112t227 39q121 0 226 -39t182.5 -112t121.5 -176.5t44 -233.5q0 -129 -44 -231.5t-121.5 -173.5t-182.5 -108.5t-226 -37.5zM616 225q45 0 82 17.5t63.5 55t41 95
t14.5 137.5q0 81 -14.5 140t-41 97.5t-63.5 57.5t-82 19t-82 -19t-64 -57.5t-41.5 -97.5t-14.5 -140q0 -80 14.5 -137.5t41.5 -95t64 -55t82 -17.5zM406 1147q-38 0 -70 12t-55 33.5t-36 51t-13 65.5q0 35 13 65t36 52t55 34.5t70 12.5q37 0 69 -12.5t54.5 -34.5t35.5 -52
t13 -65q0 -36 -13 -65.5t-35.5 -51t-54.5 -33.5t-69 -12zM823 1147q-38 0 -69.5 12t-54 33.5t-35.5 51t-13 65.5q0 35 13 65t35.5 52t54 34.5t69.5 12.5t70 -12.5t55.5 -34.5t36.5 -52t13 -65q0 -36 -13 -65.5t-36.5 -51t-55.5 -33.5t-70 -12z" />
    <glyph glyph-name="divide" unicode="&#xf7;" 
d="M616 129q-40 0 -74.5 14t-60 38.5t-40.5 58t-15 71.5q0 39 15 73.5t40.5 59.5t60 39.5t74.5 14.5q39 0 74 -14.5t61 -39.5t41 -59.5t15 -73.5q0 -38 -15 -71.5t-41 -58t-61 -38.5t-74 -14zM119 850h995v-285h-995v285zM616 918q-40 0 -74.5 14t-60 38.5t-40.5 58.5
t-15 73q0 38 15 71.5t40.5 58.5t60 39.5t74.5 14.5q39 0 74 -14.5t61 -39.5t41 -58.5t15 -71.5q0 -39 -15 -73t-41 -58.5t-61 -38.5t-74 -14z" />
    <glyph glyph-name="oslash" unicode="&#xf8;" horiz-adv-x="1231" 
d="M616 -16q-80 0 -153.5 16t-136.5 47l-82 -100h-168v53l117 143q-72 72 -112 170t-40 222q0 130 44 233.5t121.5 176.5t182.5 112t227 39q82 0 156 -18.5t139 -53.5l74 92h168v-53l-111 -137q70 -73 109 -171.5t39 -219.5q0 -129 -44 -231.5t-121.5 -173.5t-182.5 -108.5
t-226 -37.5zM403 530q0 -68 9 -116l325 397q-24 22 -55 31.5t-66 9.5q-47 0 -86 -19.5t-67 -59t-44 -100.5t-16 -143zM616 213q46 0 84.5 19.5t66 58.5t43 98.5t15.5 140.5q0 34 -1.5 63.5t-6.5 55.5l-325 -397q26 -22 57.5 -30.5t66.5 -8.5z" />
    <glyph glyph-name="ugrave" unicode="&#xf9;" horiz-adv-x="1249" 
d="M608 254q44 0 87.5 11t80.5 24v790h367v-1079h-256q-22 0 -38.5 4t-29 17t-21 37t-14.5 63q-37 -29 -78.5 -53.5t-88 -43.5t-97 -29.5t-104.5 -10.5q-67 0 -124.5 15t-100 51t-67 95t-24.5 148v786h369v-702q0 -39 9.5 -63t27 -37.5t43.5 -18t59 -4.5zM520 1149l-209 203
v88h355l69 -223v-68h-215z" />
    <glyph glyph-name="uacute" unicode="&#xfa;" horiz-adv-x="1249" 
d="M608 254q44 0 87.5 11t80.5 24v790h367v-1079h-256q-22 0 -38.5 4t-29 17t-21 37t-14.5 63q-37 -29 -78.5 -53.5t-88 -43.5t-97 -29.5t-104.5 -10.5q-67 0 -124.5 15t-100 51t-67 95t-24.5 148v786h369v-702q0 -39 9.5 -63t27 -37.5t43.5 -18t59 -4.5zM520 1149v68
l67 223h355v-88l-207 -203h-215z" />
    <glyph glyph-name="ucircumflex" unicode="&#xfb;" horiz-adv-x="1249" 
d="M608 254q44 0 87.5 11t80.5 24v790h367v-1079h-256q-22 0 -38.5 4t-29 17t-21 37t-14.5 63q-37 -29 -78.5 -53.5t-88 -43.5t-97 -29.5t-104.5 -10.5q-67 0 -124.5 15t-100 51t-67 95t-24.5 148v786h369v-702q0 -39 9.5 -63t27 -37.5t43.5 -18t59 -4.5zM315 1227l187 213
h247l183 -213v-78h-199l-115 86l-112 -86h-191v78z" />
    <glyph glyph-name="udieresis" unicode="&#xfc;" horiz-adv-x="1249" 
d="M608 254q44 0 87.5 11t80.5 24v790h367v-1079h-256q-22 0 -38.5 4t-29 17t-21 37t-14.5 63q-37 -29 -78.5 -53.5t-88 -43.5t-97 -29.5t-104.5 -10.5q-67 0 -124.5 15t-100 51t-67 95t-24.5 148v786h369v-702q0 -39 9.5 -63t27 -37.5t43.5 -18t59 -4.5zM416 1147
q-38 0 -70 12t-55 33.5t-36 51t-13 65.5q0 35 13 65t36 52t55 34.5t70 12.5q37 0 69 -12.5t54.5 -34.5t35.5 -52t13 -65q0 -36 -13 -65.5t-35.5 -51t-54.5 -33.5t-69 -12zM833 1147q-38 0 -69.5 12t-54 33.5t-35.5 51t-13 65.5q0 35 13 65t35.5 52t54 34.5t69.5 12.5
t70 -12.5t55.5 -34.5t36.5 -52t13 -65q0 -36 -13 -65.5t-36.5 -51t-55.5 -33.5t-70 -12z" />
    <glyph glyph-name="yacute" unicode="&#xfd;" horiz-adv-x="1165" 
d="M279 -248l141 299l-389 944v84h350l225 -612h6l209 612h316v-84l-525 -1327h-333v84zM502 1149v68l67 223h355v-88l-207 -203h-215z" />
    <glyph glyph-name="thorn" unicode="&#xfe;" horiz-adv-x="1239" 
d="M467 973q58 53 136 88t185 35q77 0 150.5 -28t130.5 -90.5t92 -163.5t35 -247q0 -151 -36.5 -258t-98.5 -175.5t-146 -100t-178 -31.5q-86 0 -152.5 21t-117.5 59v-414h-369v1766h234q42 0 68.5 -7t41 -28t20 -59t5.5 -99v-268zM623 821q-34 0 -76.5 -9.5t-79.5 -25.5
v-499q31 -22 67 -32.5t82 -10.5q42 0 80 12t66 44.5t44.5 89.5t16.5 147q0 87 -16 142t-43 86.5t-63.5 43.5t-77.5 12z" />
    <glyph glyph-name="ydieresis" unicode="&#xff;" horiz-adv-x="1165" 
d="M279 -248l141 299l-389 944v84h350l225 -612h6l209 612h316v-84l-525 -1327h-333v84zM398 1147q-38 0 -70 12t-55 33.5t-36 51t-13 65.5q0 35 13 65t36 52t55 34.5t70 12.5q37 0 69 -12.5t54.5 -34.5t35.5 -52t13 -65q0 -36 -13 -65.5t-35.5 -51t-54.5 -33.5t-69 -12z
M815 1147q-38 0 -69.5 12t-54 33.5t-35.5 51t-13 65.5q0 35 13 65t35.5 52t54 34.5t69.5 12.5t70 -12.5t55.5 -34.5t36.5 -52t13 -65q0 -36 -13 -65.5t-36.5 -51t-55.5 -33.5t-70 -12z" />
    <glyph glyph-name="dotlessi" unicode="&#x131;" horiz-adv-x="569" 
d="M100 0v1079h238q42 0 67 -8.5t39 -31.5t18.5 -63t4.5 -104v-872h-367z" />
    <glyph glyph-name="Lslash" unicode="&#x141;" horiz-adv-x="1155" 
d="M137 0v455l-125 -45v252l125 45v727h393v-580l365 135v-252l-365 -135v-332h564v-270h-957z" />
    <glyph glyph-name="lslash" unicode="&#x142;" horiz-adv-x="608" 
d="M121 0v569l-115 -59v242l115 59v623h233q42 0 68.5 -7t40.5 -28t19 -59t5 -99v-235l121 63v-242l-121 -63v-764h-366z" />
    <glyph glyph-name="OE" unicode="&#x152;" horiz-adv-x="1982" 
d="M813 0q-374 0 -567 174.5t-193 534.5q0 362 194.5 543.5t575.5 181.5h1071v-275h-583v-305h407v-258h-407v-330h604v-266h-1102zM829 1165q-96 0 -167 -23.5t-117.5 -76.5t-69 -138t-22.5 -208t22 -209t68.5 -139.5t117 -78t168.5 -24.5h91v897h-91z" />
    <glyph glyph-name="oe" unicode="&#x153;" horiz-adv-x="1913" 
d="M610 -16q-120 0 -224 37.5t-180.5 108.5t-120.5 173.5t-44 231.5q0 130 43.5 233.5t120 176.5t180 112t223.5 39q119 0 217.5 -41.5t169.5 -116.5q66 75 160.5 116.5t216.5 41.5q244 0 372 -134.5t128 -408.5q0 -32 -2 -58.5t-2 -35.5h-682q7 -69 26.5 -113.5t51 -70.5
t76 -36t100.5 -10q91 0 158 23t116 57h115v-219q-35 -20 -77.5 -39t-95.5 -34t-118.5 -24t-146.5 -9q-138 0 -236.5 38t-163.5 109q-71 -72 -167 -109.5t-214 -37.5zM616 223q45 0 82 18t63.5 55.5t41 95.5t14.5 138q0 81 -14.5 139.5t-41 97t-63.5 57t-82 18.5t-82 -18.5
t-64 -57t-41.5 -97t-14.5 -139.5q0 -80 14.5 -138t41.5 -95.5t64 -55.5t82 -18zM1364 870q-32 0 -60.5 -9.5t-51.5 -34t-40 -67t-24 -108.5h336q-2 62 -13.5 104t-32 67.5t-49 36.5t-65.5 11z" />
    <glyph glyph-name="Scaron" unicode="&#x160;" horiz-adv-x="1120" 
d="M514 -18q-78 0 -145 8t-124 23t-106.5 36t-93.5 47v273h145q22 -23 52 -44t68.5 -37t86 -25t103.5 -9q111 0 167 36.5t56 104.5q0 46 -20.5 73.5t-57 45.5t-86.5 30.5t-110 28.5q-99 25 -174 59.5t-125.5 86t-76.5 123.5t-26 174q0 110 40 192t111 136t170 81t218 27
q136 0 242 -25.5t184 -70.5v-264h-142q-49 37 -116 62.5t-154 25.5q-105 0 -157 -32t-52 -101q0 -36 15 -60t44.5 -41t73.5 -30t103 -27q127 -29 214.5 -66t141.5 -90t78 -126t24 -173q0 -108 -36.5 -192t-108.5 -141.5t-178.5 -88t-247.5 -30.5zM875 1686l-189 -205h-247
l-181 205v77h199l115 -77l112 77h191v-77z" />
    <glyph glyph-name="scaron" unicode="&#x161;" horiz-adv-x="961" 
d="M440 -14q-71 0 -128 7t-104 19t-85.5 27.5t-71.5 32.5v241h125q16 -15 40.5 -29t56.5 -25.5t70.5 -18.5t82.5 -7q74 0 117 18t43 60q0 22 -8 37t-29 25.5t-57.5 18.5t-92.5 16q-86 10 -152.5 32t-112.5 60.5t-69.5 97.5t-23.5 143q0 88 33 154.5t93 110.5t143.5 66
t185.5 22q64 0 116 -5t95.5 -14.5t80.5 -23t72 -29.5v-238h-117q-37 25 -96.5 45.5t-140.5 20.5q-78 0 -109.5 -20t-31.5 -58q0 -17 9.5 -30t31 -22.5t57 -17.5t86.5 -14q94 -12 164.5 -33.5t116.5 -60t69 -97.5t23 -145t-29 -154t-88.5 -115t-150 -72t-214.5 -25zM797 1362
l-189 -213h-247l-181 213v78h199l115 -86l112 86h191v-78z" />
    <glyph glyph-name="Ydieresis" unicode="&#x178;" horiz-adv-x="1305" 
d="M467 0v532l-438 805v97h368l287 -560h4l277 560h311v-97l-416 -794v-543h-393zM471 1481q-38 0 -70 12t-55 33.5t-36 51t-13 64.5q0 36 13 65.5t36 51t55 33.5t70 12q37 0 69 -12t54.5 -33.5t35.5 -51t13 -65.5q0 -35 -13 -64.5t-35.5 -51t-54.5 -33.5t-69 -12zM888 1481
q-38 0 -69.5 12t-54 33.5t-35.5 51t-13 64.5q0 36 13 65.5t35.5 51t54 33.5t69.5 12t70 -12t55.5 -33.5t36.5 -51t13 -65.5q0 -35 -13 -64.5t-36.5 -51t-55.5 -33.5t-70 -12z" />
    <glyph glyph-name="Zcaron" unicode="&#x17d;" horiz-adv-x="1171" 
d="M38 285l637 868v8h-592v273h1014v-295l-637 -863v-8h637v-268h-1059v285zM918 1686l-189 -205h-247l-181 205v77h199l115 -77l112 77h191v-77z" />
    <glyph glyph-name="zcaron" unicode="&#x17e;" horiz-adv-x="1040" 
d="M51 248l506 577h-479v254h903v-254l-508 -575h498v-250h-920v248zM836 1362l-189 -213h-247l-181 213v78h199l115 -86l112 86h191v-78z" />
    <glyph glyph-name="florin" unicode="&#x192;" 
d="M377 672h-141v237h170l28 228q19 161 113 241t268 80q69 0 113 -9t76 -22v-210h-68q-62 0 -92.5 -20.5t-38.5 -80.5l-25 -207h197v-237h-225l-107 -877h-371z" />
    <glyph glyph-name="circumflex" unicode="&#x2c6;" horiz-adv-x="815" 
d="M98 1227l187 213h247l183 -213v-78h-199l-115 86l-112 -86h-191v78z" />
    <glyph glyph-name="caron" unicode="&#x2c7;" horiz-adv-x="815" 
d="M715 1362l-189 -213h-247l-181 213v78h199l115 -86l112 86h191v-78z" />
    <glyph glyph-name="breve" unicode="&#x2d8;" horiz-adv-x="815" 
d="M408 1149q-64 0 -115 17t-88.5 46.5t-61 69t-32.5 84.5v82h211q3 -34 22.5 -56t63.5 -22q43 0 62 22t24 56h211v-82q-9 -45 -33 -84.5t-61.5 -69t-88 -46.5t-114.5 -17z" />
    <glyph glyph-name="dotaccent" unicode="&#x2d9;" horiz-adv-x="815" 
d="M408 1145q-41 0 -76 13t-60.5 35.5t-40 54t-14.5 69.5q0 37 14.5 69t40 55.5t60.5 36.5t76 13q40 0 75 -13t60.5 -36.5t40 -55.5t14.5 -69q0 -38 -14.5 -69.5t-40 -54t-60.5 -35.5t-75 -13z" />
    <glyph glyph-name="ring" unicode="&#x2da;" horiz-adv-x="815" 
d="M408 1151q-45 0 -85 14.5t-70 41.5t-47.5 66t-17.5 87t17.5 86.5t47.5 65.5t70 42t85 15q44 0 84 -15t70 -42t47.5 -65.5t17.5 -86.5t-17.5 -87t-47.5 -66t-70 -41.5t-84 -14.5zM408 1286q31 0 50 20t19 54t-19 54t-50 20t-49.5 -20t-18.5 -54t18.5 -54t49.5 -20z" />
    <glyph glyph-name="ogonek" unicode="&#x2db;" horiz-adv-x="815" 
d="M444 -342q-112 0 -169.5 42.5t-57.5 115.5q0 32 11.5 59.5t30.5 50t44.5 41t52.5 33.5h209q-32 -28 -50.5 -50.5t-18.5 -51.5q0 -23 16.5 -36.5t58.5 -13.5h37v-155q-29 -17 -68 -26t-96 -9z" />
    <glyph glyph-name="tilde" unicode="&#x2dc;" horiz-adv-x="815" 
d="M51 1233q17 102 73 157.5t144 55.5q37 0 70 -7.5t61.5 -17t52 -17t42.5 -7.5q26 0 40.5 13t22.5 36h184v-82q-17 -102 -72.5 -157.5t-142.5 -55.5q-38 0 -70.5 8.5t-61 18t-52 18t-41.5 8.5q-53 0 -65 -53h-185v82z" />
    <glyph glyph-name="hungarumlaut" unicode="&#x2dd;" horiz-adv-x="815" 
d="M127 1206l66 234h282v-86l-158 -205h-190v57zM487 1206l66 234h283v-86l-156 -205h-193v57z" />
    <glyph glyph-name="endash" unicode="&#x2013;" horiz-adv-x="915" 
d="M78 713h758v-271h-758v271z" />
    <glyph glyph-name="emdash" unicode="&#x2014;" horiz-adv-x="1532" 
d="M78 713h1374v-273h-1374v273z" />
    <glyph glyph-name="quoteleft" unicode="&#x2018;" horiz-adv-x="473" 
d="M422 1288q-62 -8 -96.5 -28.5t-34.5 -49.5q0 -14 6.5 -22t16.5 -15t22.5 -13t25.5 -15q25 -20 42.5 -48t17.5 -75q0 -34 -13 -62t-36.5 -48.5t-55.5 -32t-69 -11.5q-39 0 -75 12.5t-63 39t-43 67t-16 96.5q0 164 90.5 251.5t280.5 103.5v-150z" />
    <glyph glyph-name="quoteright" unicode="&#x2019;" horiz-adv-x="473" 
d="M51 1030q62 8 96.5 27.5t34.5 48.5q0 15 -6.5 23.5t-16 15t-22 13t-24.5 16.5q-26 18 -44 46t-18 76q0 34 13 62t36.5 48.5t56 32t70.5 11.5q39 0 74 -13t62 -39.5t43 -67t16 -95.5q0 -164 -90.5 -252t-280.5 -102v149z" />
    <glyph glyph-name="quotesinglbase" unicode="&#x201a;" horiz-adv-x="473" 
d="M51 -59q62 6 96.5 26t34.5 49q0 14 -6.5 22.5t-16 15t-22 13.5t-24.5 17q-26 19 -44 47t-18 76q0 34 13 62t36.5 48t56 31.5t70.5 11.5q39 0 74 -13t62 -39t43 -67t16 -96q0 -165 -90.5 -252.5t-280.5 -103.5v152z" />
    <glyph glyph-name="quotedblleft" unicode="&#x201c;" horiz-adv-x="913" 
d="M422 1288q-62 -8 -96.5 -28.5t-34.5 -49.5q0 -14 6.5 -22t16.5 -15t22.5 -13t25.5 -15q25 -20 42.5 -48t17.5 -75q0 -34 -13 -62t-36.5 -48.5t-55.5 -32t-69 -11.5q-39 0 -75 12.5t-63 39t-43 67t-16 96.5q0 164 90.5 251.5t280.5 103.5v-150zM860 1288
q-60 -8 -94.5 -28.5t-34.5 -49.5q0 -14 6.5 -22t16.5 -15t22.5 -13t24.5 -15q26 -20 43.5 -48t17.5 -75q0 -34 -13 -62t-36.5 -48.5t-56 -32t-70.5 -11.5t-73 12.5t-62 39t-43 67t-16 96.5q0 163 90 251t278 104v-150z" />
    <glyph glyph-name="quotedblright" unicode="&#x201d;" horiz-adv-x="913" 
d="M492 1030q61 8 96 27.5t35 48.5q0 15 -6.5 23.5t-16.5 15t-23 13t-26 16.5q-25 18 -42 46t-17 76q0 34 13 62t36 48.5t55 32t70 11.5q39 0 74.5 -13t62.5 -39.5t43 -67t16 -95.5q0 -164 -90.5 -252t-279.5 -102v149zM51 1030q62 8 96.5 27.5t34.5 48.5q0 15 -6.5 23.5
t-16 15t-22 13t-24.5 16.5q-26 18 -44 46t-18 76q0 34 13 62t36.5 48.5t56 32t70.5 11.5q39 0 74 -13t62 -39.5t43 -67t16 -95.5q0 -164 -90.5 -252t-280.5 -102v149z" />
    <glyph glyph-name="quotedblbase" unicode="&#x201e;" horiz-adv-x="913" 
d="M492 -59q61 6 96 26t35 49q0 14 -6.5 22.5t-16.5 15t-23 13.5t-26 17q-25 19 -42 47t-17 76q0 34 13 62t36 48t55 31.5t70 11.5q39 0 74.5 -13t62.5 -39t43 -67t16 -96q0 -165 -90.5 -252.5t-279.5 -103.5v152zM51 -59q62 6 96.5 26t34.5 49q0 14 -6.5 22.5t-16 15
t-22 13.5t-24.5 17q-26 19 -44 47t-18 76q0 34 13 62t36.5 48t56 31.5t70.5 11.5q39 0 74 -13t62 -39t43 -67t16 -96q0 -165 -90.5 -252.5t-280.5 -103.5v152z" />
    <glyph glyph-name="dagger" unicode="&#x2020;" horiz-adv-x="981" 
d="M307 510v133l78 215l-223 -72h-119v334h119l223 -76l-68 203v187h347v-187l-68 -200l223 73h119v-334h-119l-223 74l78 -213v-135l-58 -612h-251z" />
    <glyph glyph-name="daggerdbl" unicode="&#x2021;" horiz-adv-x="981" 
d="M317 72l68 202l-223 -75h-119v333h119l225 -73l-80 147v117l78 149l-223 -71h-119v334h119l223 -78l-68 205v172h347v-172l-68 -203l223 76h119v-334h-119l-225 73l80 -147v-117l-78 -149l223 71h119v-333h-119l-223 77l68 -204v-172h-347v172z" />
    <glyph glyph-name="bullet" unicode="&#x2022;" horiz-adv-x="731" 
d="M367 274q-63 0 -118.5 20t-97.5 58.5t-66 93.5t-24 125t24 126t66 95t97.5 59.5t118.5 20.5q64 0 119 -20.5t96 -59.5t64.5 -95t23.5 -126t-23.5 -125t-64.5 -93.5t-96 -58.5t-119 -20z" />
    <glyph glyph-name="ellipsis" unicode="&#x2026;" horiz-adv-x="1473" 
d="M240 -14q-40 0 -75 14.5t-61.5 39.5t-41.5 59t-15 73t15 73t41.5 59t61.5 39.5t75 14.5t75 -14.5t61 -39.5t41 -59t15 -73t-15 -73t-41 -59t-61 -39.5t-75 -14.5zM736 -14q-41 0 -76 14.5t-60.5 39.5t-40.5 59t-15 73t15 73t40.5 59t60.5 39.5t76 14.5q39 0 74.5 -14.5
t61.5 -39.5t41.5 -59t15.5 -73t-15.5 -73t-41.5 -59t-61.5 -39.5t-74.5 -14.5zM1234 -14q-40 0 -75 14.5t-61.5 39.5t-41.5 59t-15 73t15 73t41.5 59t61.5 39.5t75 14.5t75 -14.5t61 -39.5t41 -59t15 -73t-15 -73t-41 -59t-61 -39.5t-75 -14.5z" />
    <glyph glyph-name="perthousand" unicode="&#x2030;" horiz-adv-x="2458" 
d="M406 868q47 0 74.5 46.5t27.5 150.5q0 106 -27 151.5t-75 45.5q-50 0 -76.5 -45.5t-26.5 -151.5q0 -105 26.5 -151t76.5 -46zM406 682q-68 0 -131.5 23.5t-112 71.5t-78 121t-29.5 171t29.5 170t78 119.5t112 70.5t131.5 23q67 0 130.5 -23t112 -70.5t78 -119.5
t29.5 -170t-29.5 -171t-78 -121t-112 -71.5t-130.5 -23.5zM1223 1493h237l-1009 -1563h-238zM1274 170q47 0 74.5 46t27.5 151q0 106 -27 151t-75 45q-50 0 -76.5 -45t-26.5 -151q0 -105 26.5 -151t76.5 -46zM1274 -18q-68 0 -131 24t-111.5 72.5t-78 121.5t-29.5 171
t29.5 170t78 119.5t111.5 70.5t131 23q67 0 130.5 -23t112 -70.5t78 -119.5t29.5 -170t-29.5 -171t-78 -121.5t-112 -72.5t-130.5 -24zM2052 170q49 0 75.5 46t26.5 151q0 106 -26 151t-76 45q-48 0 -75 -45t-27 -151q0 -105 27.5 -151t74.5 -46zM2052 -18q-68 0 -131 24
t-111.5 72.5t-78 121.5t-29.5 171t29.5 170t78 119.5t111.5 70.5t131 23q67 0 130.5 -23t112 -70.5t78 -119.5t29.5 -170t-29.5 -171t-78 -121.5t-112 -72.5t-130.5 -24z" />
    <glyph glyph-name="guilsinglleft" unicode="&#x2039;" horiz-adv-x="633" 
d="M63 467v129l232 387h274v-74l-215 -372v-5l215 -376v-74h-274z" />
    <glyph glyph-name="guilsinglright" unicode="&#x203a;" horiz-adv-x="633" 
d="M569 596v-129l-231 -385h-275v74l216 376v5l-216 372v74h275z" />
    <glyph glyph-name="fraction" unicode="&#x2044;" horiz-adv-x="459" 
d="M-156 -70h-237l1009 1563h238z" />
    <glyph glyph-name="Euro" unicode="&#x20ac;" 
d="M754 -18q-116 0 -214 30.5t-174.5 92t-129 154.5t-78.5 218h-117v191h92v45v25.5t2 25.5h-94v190h119q27 124 82.5 217t135.5 155.5t182.5 94t223.5 31.5q64 0 115 -5.5t94 -16t81 -27t77 -37.5v-266h-145q-20 16 -41 29.5t-45.5 23.5t-54 15.5t-66.5 5.5
q-108 0 -167 -54.5t-87 -165.5h340l-35 -190h-328v-43v-53h309l-34 -191h-254q12 -57 31 -98.5t48 -68.5t68.5 -39.5t93.5 -12.5q45 0 81 7.5t66 21t55 31t46 38.5h129v-247q-35 -27 -75 -50t-89.5 -40.5t-109.5 -27t-133 -9.5z" />
    <glyph glyph-name="trademark" unicode="&#x2122;" horiz-adv-x="1450" 
d="M211 860v428h-158v146h516v-146h-159v-428h-199zM647 1434h281l82 -285h2l84 285h282v-574h-194v395h-2l-119 -395h-135l-117 395h-2v-395h-162v574z" />
    <glyph glyph-name="minus" unicode="&#x2212;" 
d="M119 565v285h995v-285h-995z" />
    <glyph glyph-name="fi" unicode="&#xfb01;" horiz-adv-x="1264" 
d="M795 0v1079h237q42 0 67 -8.5t39 -31.5t18.5 -63t4.5 -104v-872h-366zM979 1145q-41 0 -76 13t-60.5 35.5t-40 54t-14.5 69.5q0 37 14.5 69t40 55.5t60.5 36.5t76 13q40 0 75 -13t60.5 -36.5t40 -55.5t14.5 -69q0 -38 -14.5 -69.5t-40 -54t-60.5 -35.5t-75 -13zM25 1079
h116v66q0 83 24.5 142t71.5 97t115 56t154 18q66 0 110 -8t76 -20v-207h-57q-62 0 -93.5 -18t-31.5 -75v-51h182v-237h-182v-842h-369v842h-116v237z" />
    <glyph glyph-name="fl" unicode="&#xfb02;" horiz-adv-x="1262" 
d="M25 1079h116v66q0 83 24.5 142t71.5 97t115 56t154 18q66 0 110 -8t76 -20v-207h-57q-62 0 -93.5 -18t-31.5 -75v-51h182v-237h-182v-842h-369v842h-116v237zM795 0v1434h233q42 0 68.5 -7t40.5 -28t19 -59t5 -99v-1241h-366z" />
    <glyph glyph-name="grave.cap" horiz-adv-x="815" 
d="M311 1481l-209 190v86h355l69 -209v-67h-215z" />
    <glyph glyph-name="dieresis.cap" horiz-adv-x="815" 
d="M199 1481q-38 0 -70 12t-55 33.5t-36 51t-13 64.5q0 36 13 65.5t36 51t55 33.5t70 12q37 0 69 -12t54.5 -33.5t35.5 -51t13 -65.5q0 -35 -13 -64.5t-35.5 -51t-54.5 -33.5t-69 -12zM616 1481q-38 0 -69.5 12t-54 33.5t-35.5 51t-13 64.5q0 36 13 65.5t35.5 51t54 33.5
t69.5 12t70 -12t55.5 -33.5t36.5 -51t13 -65.5q0 -35 -13 -64.5t-36.5 -51t-55.5 -33.5t-70 -12z" />
    <glyph glyph-name="macron.cap" horiz-adv-x="815" 
d="M690 1501h-565v223h565v-223z" />
    <glyph glyph-name="acute.cap" horiz-adv-x="815" 
d="M291 1548l67 209h355v-86l-207 -190h-215v67z" />
    <glyph glyph-name="circumflex.cap" horiz-adv-x="815" 
d="M98 1559l187 204h247l183 -204v-78h-199l-115 78l-112 -78h-191v78z" />
    <glyph glyph-name="caron.cap" horiz-adv-x="815" 
d="M715 1686l-189 -205h-247l-181 205v77h199l115 -77l112 77h191v-77z" />
    <glyph glyph-name="breve.cap" horiz-adv-x="815" 
d="M408 1481q-64 0 -115 16t-88.5 43t-61 64t-32.5 79v80h211q3 -24 22.5 -43.5t63.5 -19.5q43 0 62 19.5t24 43.5h211v-80q-9 -41 -33 -77.5t-61.5 -64t-88 -44t-114.5 -16.5z" />
    <glyph glyph-name="dotaccent.cap" horiz-adv-x="815" 
d="M408 1481q-41 0 -76 13t-60.5 35.5t-40 54t-14.5 69.5q0 37 14.5 69t40 55.5t60.5 36.5t76 13q40 0 75 -13t60.5 -36.5t40 -55.5t14.5 -69q0 -38 -14.5 -69.5t-40 -54t-60.5 -35.5t-75 -13z" />
    <glyph glyph-name="ring.cap" horiz-adv-x="815" 
d="M408 1481q-45 0 -85 14.5t-70 41.5t-47.5 66t-17.5 87t17.5 86.5t47.5 65.5t70 42t85 15q44 0 84 -15t70 -42t47.5 -65.5t17.5 -86.5t-17.5 -87t-47.5 -66t-70 -41.5t-84 -14.5zM408 1616q31 0 50 20t19 54t-19 54t-50 20t-49.5 -20t-18.5 -54t18.5 -54t49.5 -20z" />
    <glyph glyph-name="tilde.cap" horiz-adv-x="815" 
d="M51 1563q17 102 73 156.5t144 54.5q37 0 70 -8t61.5 -17t52 -17t42.5 -8q26 0 40.5 13.5t22.5 36.5h184v-82q-17 -103 -72.5 -157t-142.5 -54q-38 0 -70.5 8.5t-61 18t-52 18t-41.5 8.5q-53 0 -65 -53h-185v82z" />
    <glyph glyph-name="hungarumlaut.cap" horiz-adv-x="815" 
d="M121 1540l63 217h289v-86l-156 -190h-196v59zM487 1540l64 217h289v-86l-154 -190h-199v59z" />
    </font>
</defs>
</svg>
